<?xml version="1.0" encoding="utf-8" standalone="no"?>
<!DOCTYPE svg PUBLIC "-//W3C//DTD SVG 1.1//EN"
  "http://www.w3.org/Graphics/SVG/1.1/DTD/svg11.dtd">
<svg xmlns:xlink="http://www.w3.org/1999/xlink" width="856.277188pt" height="423.036514pt" viewBox="0 0 856.277188 423.036514" xmlns="http://www.w3.org/2000/svg" version="1.1">
 <metadata>
  <rdf:RDF xmlns:dc="http://purl.org/dc/elements/1.1/" xmlns:cc="http://creativecommons.org/ns#" xmlns:rdf="http://www.w3.org/1999/02/22-rdf-syntax-ns#">
   <cc:Work>
    <dc:type rdf:resource="http://purl.org/dc/dcmitype/StillImage"/>
    <dc:date>2025-01-17T15:13:03.340632</dc:date>
    <dc:format>image/svg+xml</dc:format>
    <dc:creator>
     <cc:Agent>
      <dc:title>Matplotlib v3.10.0, https://matplotlib.org/</dc:title>
     </cc:Agent>
    </dc:creator>
   </cc:Work>
  </rdf:RDF>
 </metadata>
 <defs>
  <style type="text/css">*{stroke-linejoin: round; stroke-linecap: butt}</style>
 </defs>
 <g id="figure_1">
  <g id="patch_1">
   <path d="M 0 423.036514 
L 856.277188 423.036514 
L 856.277188 0 
L 0 0 
z
" style="fill: #ffffff"/>
  </g>
  <g id="axes_1">
   <g id="patch_2">
    <path d="M 47.917188 276.933891 
L 849.077188 276.933891 
L 849.077188 36.318125 
L 47.917188 36.318125 
z
" style="fill: #ffffff"/>
   </g>
   <g id="patch_3">
    <path d="M 84.333551 276.933891 
L 103.008609 276.933891 
L 103.008609 88.924952 
L 84.333551 88.924952 
z
" clip-path="url(#p5641f10259)" style="fill: #2196f3; opacity: 0.8"/>
   </g>
   <g id="patch_4">
    <path d="M 159.033784 276.933891 
L 177.708843 276.933891 
L 177.708843 129.234069 
L 159.033784 129.234069 
z
" clip-path="url(#p5641f10259)" style="fill: #2196f3; opacity: 0.8"/>
   </g>
   <g id="patch_5">
    <path d="M 233.734017 276.933891 
L 252.409076 276.933891 
L 252.409076 179.470057 
L 233.734017 179.470057 
z
" clip-path="url(#p5641f10259)" style="fill: #2196f3; opacity: 0.8"/>
   </g>
   <g id="patch_6">
    <path d="M 308.43425 276.933891 
L 327.109309 276.933891 
L 327.109309 214.665331 
L 308.43425 214.665331 
z
" clip-path="url(#p5641f10259)" style="fill: #2196f3; opacity: 0.8"/>
   </g>
   <g id="patch_7">
    <path d="M 383.134484 276.933891 
L 401.809542 276.933891 
L 401.809542 271.519234 
L 383.134484 271.519234 
z
" clip-path="url(#p5641f10259)" style="fill: #2196f3; opacity: 0.8"/>
   </g>
   <g id="patch_8">
    <path d="M 457.834717 276.933891 
L 476.509775 276.933891 
L 476.509775 228.201974 
L 457.834717 228.201974 
z
" clip-path="url(#p5641f10259)" style="fill: #2196f3; opacity: 0.8"/>
   </g>
   <g id="patch_9">
    <path d="M 532.53495 276.933891 
L 551.210008 276.933891 
L 551.210008 269.11272 
L 532.53495 269.11272 
z
" clip-path="url(#p5641f10259)" style="fill: #2196f3; opacity: 0.8"/>
   </g>
   <g id="patch_10">
    <path d="M 607.235183 276.933891 
L 625.910241 276.933891 
L 625.910241 251.966304 
L 607.235183 251.966304 
z
" clip-path="url(#p5641f10259)" style="fill: #2196f3; opacity: 0.8"/>
   </g>
   <g id="patch_11">
    <path d="M 681.935416 276.933891 
L 700.610474 276.933891 
L 700.610474 276.933891 
L 681.935416 276.933891 
z
" clip-path="url(#p5641f10259)" style="fill: #2196f3; opacity: 0.8"/>
   </g>
   <g id="patch_12">
    <path d="M 756.635649 276.933891 
L 775.310707 276.933891 
L 775.310707 245.649204 
L 756.635649 245.649204 
z
" clip-path="url(#p5641f10259)" style="fill: #2196f3; opacity: 0.8"/>
   </g>
   <g id="patch_13">
    <path d="M 103.008609 276.933891 
L 121.683668 276.933891 
L 121.683668 251.016719 
L 103.008609 251.016719 
z
" clip-path="url(#p5641f10259)" style="fill: #ffa726; opacity: 0.8"/>
   </g>
   <g id="patch_14">
    <path d="M 177.708843 276.933891 
L 196.383901 276.933891 
L 196.383901 252.227677 
L 177.708843 252.227677 
z
" clip-path="url(#p5641f10259)" style="fill: #ffa726; opacity: 0.8"/>
   </g>
   <g id="patch_15">
    <path d="M 252.409076 276.933891 
L 271.084134 276.933891 
L 271.084134 257.174947 
L 252.409076 257.174947 
z
" clip-path="url(#p5641f10259)" style="fill: #ffa726; opacity: 0.8"/>
   </g>
   <g id="patch_16">
    <path d="M 327.109309 276.933891 
L 345.784367 276.933891 
L 345.784367 268.660596 
L 327.109309 268.660596 
z
" clip-path="url(#p5641f10259)" style="fill: #ffa726; opacity: 0.8"/>
   </g>
   <g id="patch_17">
    <path d="M 401.809542 276.933891 
L 420.4846 276.933891 
L 420.4846 257.194894 
L 401.809542 257.194894 
z
" clip-path="url(#p5641f10259)" style="fill: #ffa726; opacity: 0.8"/>
   </g>
   <g id="patch_18">
    <path d="M 476.509775 276.933891 
L 495.184833 276.933891 
L 495.184833 267.31349 
L 476.509775 267.31349 
z
" clip-path="url(#p5641f10259)" style="fill: #ffa726; opacity: 0.8"/>
   </g>
   <g id="patch_19">
    <path d="M 551.210008 276.933891 
L 569.885066 276.933891 
L 569.885066 243.326765 
L 551.210008 243.326765 
z
" clip-path="url(#p5641f10259)" style="fill: #ffa726; opacity: 0.8"/>
   </g>
   <g id="patch_20">
    <path d="M 625.910241 276.933891 
L 644.585299 276.933891 
L 644.585299 249.323408 
L 625.910241 249.323408 
z
" clip-path="url(#p5641f10259)" style="fill: #ffa726; opacity: 0.8"/>
   </g>
   <g id="patch_21">
    <path d="M 700.610474 276.933891 
L 719.285532 276.933891 
L 719.285532 259.831216 
L 700.610474 259.831216 
z
" clip-path="url(#p5641f10259)" style="fill: #ffa726; opacity: 0.8"/>
   </g>
   <g id="patch_22">
    <path d="M 775.310707 276.933891 
L 793.985766 276.933891 
L 793.985766 264.829076 
L 775.310707 264.829076 
z
" clip-path="url(#p5641f10259)" style="fill: #ffa726; opacity: 0.8"/>
   </g>
   <g id="patch_23">
    <path d="M 121.683668 276.933891 
L 140.358726 276.933891 
L 140.358726 163.721985 
L 121.683668 163.721985 
z
" clip-path="url(#p5641f10259)" style="fill: #66bb6a; opacity: 0.8"/>
   </g>
   <g id="patch_24">
    <path d="M 196.383901 276.933891 
L 215.058959 276.933891 
L 215.058959 143.263885 
L 196.383901 143.263885 
z
" clip-path="url(#p5641f10259)" style="fill: #66bb6a; opacity: 0.8"/>
   </g>
   <g id="patch_25">
    <path d="M 271.084134 276.933891 
L 289.759192 276.933891 
L 289.759192 220.066969 
L 271.084134 220.066969 
z
" clip-path="url(#p5641f10259)" style="fill: #66bb6a; opacity: 0.8"/>
   </g>
   <g id="patch_26">
    <path d="M 345.784367 276.933891 
L 364.459425 276.933891 
L 364.459425 200.100845 
L 345.784367 200.100845 
z
" clip-path="url(#p5641f10259)" style="fill: #66bb6a; opacity: 0.8"/>
   </g>
   <g id="patch_27">
    <path d="M 420.4846 276.933891 
L 439.159658 276.933891 
L 439.159658 190.769635 
L 420.4846 190.769635 
z
" clip-path="url(#p5641f10259)" style="fill: #66bb6a; opacity: 0.8"/>
   </g>
   <g id="patch_28">
    <path d="M 495.184833 276.933891 
L 513.859891 276.933891 
L 513.859891 247.573554 
L 495.184833 247.573554 
z
" clip-path="url(#p5641f10259)" style="fill: #66bb6a; opacity: 0.8"/>
   </g>
   <g id="patch_29">
    <path d="M 569.885066 276.933891 
L 588.560125 276.933891 
L 588.560125 261.269674 
L 569.885066 261.269674 
z
" clip-path="url(#p5641f10259)" style="fill: #66bb6a; opacity: 0.8"/>
   </g>
   <g id="patch_30">
    <path d="M 644.585299 276.933891 
L 663.260358 276.933891 
L 663.260358 274.643952 
L 644.585299 274.643952 
z
" clip-path="url(#p5641f10259)" style="fill: #66bb6a; opacity: 0.8"/>
   </g>
   <g id="patch_31">
    <path d="M 719.285532 276.933891 
L 737.960591 276.933891 
L 737.960591 247.642837 
L 719.285532 247.642837 
z
" clip-path="url(#p5641f10259)" style="fill: #66bb6a; opacity: 0.8"/>
   </g>
   <g id="patch_32">
    <path d="M 793.985766 276.933891 
L 812.660824 276.933891 
L 812.660824 275.65897 
L 793.985766 275.65897 
z
" clip-path="url(#p5641f10259)" style="fill: #66bb6a; opacity: 0.8"/>
   </g>
   <g id="matplotlib.axis_1">
    <g id="xtick_1">
     <g id="line2d_1">
      <defs>
       <path id="m1a5f9a6e28" d="M 0 0 
L 0 3.5 
" style="stroke: #000000; stroke-width: 0.8"/>
      </defs>
      <g>
       <use xlink:href="#m1a5f9a6e28" x="112.346139" y="276.933891" style="stroke: #000000; stroke-width: 0.8"/>
      </g>
     </g>
     <g id="text_1">
      <!-- FORCEPREHENSION -->
      <g transform="translate(48.24713 351.545011) rotate(-45) scale(0.09 -0.09)">
       <defs>
        <path id="DejaVuSans-46" d="M 628 4666 
L 3309 4666 
L 3309 4134 
L 1259 4134 
L 1259 2759 
L 3109 2759 
L 3109 2228 
L 1259 2228 
L 1259 0 
L 628 0 
L 628 4666 
z
" transform="scale(0.015625)"/>
        <path id="DejaVuSans-4f" d="M 2522 4238 
Q 1834 4238 1429 3725 
Q 1025 3213 1025 2328 
Q 1025 1447 1429 934 
Q 1834 422 2522 422 
Q 3209 422 3611 934 
Q 4013 1447 4013 2328 
Q 4013 3213 3611 3725 
Q 3209 4238 2522 4238 
z
M 2522 4750 
Q 3503 4750 4090 4092 
Q 4678 3434 4678 2328 
Q 4678 1225 4090 567 
Q 3503 -91 2522 -91 
Q 1538 -91 948 565 
Q 359 1222 359 2328 
Q 359 3434 948 4092 
Q 1538 4750 2522 4750 
z
" transform="scale(0.015625)"/>
        <path id="DejaVuSans-52" d="M 2841 2188 
Q 3044 2119 3236 1894 
Q 3428 1669 3622 1275 
L 4263 0 
L 3584 0 
L 2988 1197 
Q 2756 1666 2539 1819 
Q 2322 1972 1947 1972 
L 1259 1972 
L 1259 0 
L 628 0 
L 628 4666 
L 2053 4666 
Q 2853 4666 3247 4331 
Q 3641 3997 3641 3322 
Q 3641 2881 3436 2590 
Q 3231 2300 2841 2188 
z
M 1259 4147 
L 1259 2491 
L 2053 2491 
Q 2509 2491 2742 2702 
Q 2975 2913 2975 3322 
Q 2975 3731 2742 3939 
Q 2509 4147 2053 4147 
L 1259 4147 
z
" transform="scale(0.015625)"/>
        <path id="DejaVuSans-43" d="M 4122 4306 
L 4122 3641 
Q 3803 3938 3442 4084 
Q 3081 4231 2675 4231 
Q 1875 4231 1450 3742 
Q 1025 3253 1025 2328 
Q 1025 1406 1450 917 
Q 1875 428 2675 428 
Q 3081 428 3442 575 
Q 3803 722 4122 1019 
L 4122 359 
Q 3791 134 3420 21 
Q 3050 -91 2638 -91 
Q 1578 -91 968 557 
Q 359 1206 359 2328 
Q 359 3453 968 4101 
Q 1578 4750 2638 4750 
Q 3056 4750 3426 4639 
Q 3797 4528 4122 4306 
z
" transform="scale(0.015625)"/>
        <path id="DejaVuSans-45" d="M 628 4666 
L 3578 4666 
L 3578 4134 
L 1259 4134 
L 1259 2753 
L 3481 2753 
L 3481 2222 
L 1259 2222 
L 1259 531 
L 3634 531 
L 3634 0 
L 628 0 
L 628 4666 
z
" transform="scale(0.015625)"/>
        <path id="DejaVuSans-50" d="M 1259 4147 
L 1259 2394 
L 2053 2394 
Q 2494 2394 2734 2622 
Q 2975 2850 2975 3272 
Q 2975 3691 2734 3919 
Q 2494 4147 2053 4147 
L 1259 4147 
z
M 628 4666 
L 2053 4666 
Q 2838 4666 3239 4311 
Q 3641 3956 3641 3272 
Q 3641 2581 3239 2228 
Q 2838 1875 2053 1875 
L 1259 1875 
L 1259 0 
L 628 0 
L 628 4666 
z
" transform="scale(0.015625)"/>
        <path id="DejaVuSans-48" d="M 628 4666 
L 1259 4666 
L 1259 2753 
L 3553 2753 
L 3553 4666 
L 4184 4666 
L 4184 0 
L 3553 0 
L 3553 2222 
L 1259 2222 
L 1259 0 
L 628 0 
L 628 4666 
z
" transform="scale(0.015625)"/>
        <path id="DejaVuSans-4e" d="M 628 4666 
L 1478 4666 
L 3547 763 
L 3547 4666 
L 4159 4666 
L 4159 0 
L 3309 0 
L 1241 3903 
L 1241 0 
L 628 0 
L 628 4666 
z
" transform="scale(0.015625)"/>
        <path id="DejaVuSans-53" d="M 3425 4513 
L 3425 3897 
Q 3066 4069 2747 4153 
Q 2428 4238 2131 4238 
Q 1616 4238 1336 4038 
Q 1056 3838 1056 3469 
Q 1056 3159 1242 3001 
Q 1428 2844 1947 2747 
L 2328 2669 
Q 3034 2534 3370 2195 
Q 3706 1856 3706 1288 
Q 3706 609 3251 259 
Q 2797 -91 1919 -91 
Q 1588 -91 1214 -16 
Q 841 59 441 206 
L 441 856 
Q 825 641 1194 531 
Q 1563 422 1919 422 
Q 2459 422 2753 634 
Q 3047 847 3047 1241 
Q 3047 1584 2836 1778 
Q 2625 1972 2144 2069 
L 1759 2144 
Q 1053 2284 737 2584 
Q 422 2884 422 3419 
Q 422 4038 858 4394 
Q 1294 4750 2059 4750 
Q 2388 4750 2728 4690 
Q 3069 4631 3425 4513 
z
" transform="scale(0.015625)"/>
        <path id="DejaVuSans-49" d="M 628 4666 
L 1259 4666 
L 1259 0 
L 628 0 
L 628 4666 
z
" transform="scale(0.015625)"/>
       </defs>
       <use xlink:href="#DejaVuSans-46"/>
       <use xlink:href="#DejaVuSans-4f" transform="translate(57.519531 0)"/>
       <use xlink:href="#DejaVuSans-52" transform="translate(136.230469 0)"/>
       <use xlink:href="#DejaVuSans-43" transform="translate(200.712891 0)"/>
       <use xlink:href="#DejaVuSans-45" transform="translate(270.537109 0)"/>
       <use xlink:href="#DejaVuSans-50" transform="translate(333.720703 0)"/>
       <use xlink:href="#DejaVuSans-52" transform="translate(394.023438 0)"/>
       <use xlink:href="#DejaVuSans-45" transform="translate(463.505859 0)"/>
       <use xlink:href="#DejaVuSans-48" transform="translate(526.689453 0)"/>
       <use xlink:href="#DejaVuSans-45" transform="translate(601.884766 0)"/>
       <use xlink:href="#DejaVuSans-4e" transform="translate(665.068359 0)"/>
       <use xlink:href="#DejaVuSans-53" transform="translate(739.873047 0)"/>
       <use xlink:href="#DejaVuSans-49" transform="translate(803.349609 0)"/>
       <use xlink:href="#DejaVuSans-4f" transform="translate(832.841797 0)"/>
       <use xlink:href="#DejaVuSans-4e" transform="translate(911.552734 0)"/>
      </g>
     </g>
    </g>
    <g id="xtick_2">
     <g id="line2d_2">
      <g>
       <use xlink:href="#m1a5f9a6e28" x="187.046372" y="276.933891" style="stroke: #000000; stroke-width: 0.8"/>
      </g>
     </g>
     <g id="text_2">
      <!-- EXAMCLIN02 -->
      <g transform="translate(144.771772 329.720602) rotate(-45) scale(0.09 -0.09)">
       <defs>
        <path id="DejaVuSans-58" d="M 403 4666 
L 1081 4666 
L 2241 2931 
L 3406 4666 
L 4084 4666 
L 2584 2425 
L 4184 0 
L 3506 0 
L 2194 1984 
L 872 0 
L 191 0 
L 1856 2491 
L 403 4666 
z
" transform="scale(0.015625)"/>
        <path id="DejaVuSans-41" d="M 2188 4044 
L 1331 1722 
L 3047 1722 
L 2188 4044 
z
M 1831 4666 
L 2547 4666 
L 4325 0 
L 3669 0 
L 3244 1197 
L 1141 1197 
L 716 0 
L 50 0 
L 1831 4666 
z
" transform="scale(0.015625)"/>
        <path id="DejaVuSans-4d" d="M 628 4666 
L 1569 4666 
L 2759 1491 
L 3956 4666 
L 4897 4666 
L 4897 0 
L 4281 0 
L 4281 4097 
L 3078 897 
L 2444 897 
L 1241 4097 
L 1241 0 
L 628 0 
L 628 4666 
z
" transform="scale(0.015625)"/>
        <path id="DejaVuSans-4c" d="M 628 4666 
L 1259 4666 
L 1259 531 
L 3531 531 
L 3531 0 
L 628 0 
L 628 4666 
z
" transform="scale(0.015625)"/>
        <path id="DejaVuSans-30" d="M 2034 4250 
Q 1547 4250 1301 3770 
Q 1056 3291 1056 2328 
Q 1056 1369 1301 889 
Q 1547 409 2034 409 
Q 2525 409 2770 889 
Q 3016 1369 3016 2328 
Q 3016 3291 2770 3770 
Q 2525 4250 2034 4250 
z
M 2034 4750 
Q 2819 4750 3233 4129 
Q 3647 3509 3647 2328 
Q 3647 1150 3233 529 
Q 2819 -91 2034 -91 
Q 1250 -91 836 529 
Q 422 1150 422 2328 
Q 422 3509 836 4129 
Q 1250 4750 2034 4750 
z
" transform="scale(0.015625)"/>
        <path id="DejaVuSans-32" d="M 1228 531 
L 3431 531 
L 3431 0 
L 469 0 
L 469 531 
Q 828 903 1448 1529 
Q 2069 2156 2228 2338 
Q 2531 2678 2651 2914 
Q 2772 3150 2772 3378 
Q 2772 3750 2511 3984 
Q 2250 4219 1831 4219 
Q 1534 4219 1204 4116 
Q 875 4013 500 3803 
L 500 4441 
Q 881 4594 1212 4672 
Q 1544 4750 1819 4750 
Q 2544 4750 2975 4387 
Q 3406 4025 3406 3419 
Q 3406 3131 3298 2873 
Q 3191 2616 2906 2266 
Q 2828 2175 2409 1742 
Q 1991 1309 1228 531 
z
" transform="scale(0.015625)"/>
       </defs>
       <use xlink:href="#DejaVuSans-45"/>
       <use xlink:href="#DejaVuSans-58" transform="translate(63.183594 0)"/>
       <use xlink:href="#DejaVuSans-41" transform="translate(131.689453 0)"/>
       <use xlink:href="#DejaVuSans-4d" transform="translate(200.097656 0)"/>
       <use xlink:href="#DejaVuSans-43" transform="translate(286.376953 0)"/>
       <use xlink:href="#DejaVuSans-4c" transform="translate(356.201172 0)"/>
       <use xlink:href="#DejaVuSans-49" transform="translate(411.914062 0)"/>
       <use xlink:href="#DejaVuSans-4e" transform="translate(441.40625 0)"/>
       <use xlink:href="#DejaVuSans-30" transform="translate(516.210938 0)"/>
       <use xlink:href="#DejaVuSans-32" transform="translate(579.833984 0)"/>
      </g>
     </g>
    </g>
    <g id="xtick_3">
     <g id="line2d_3">
      <g>
       <use xlink:href="#m1a5f9a6e28" x="261.746605" y="276.933891" style="stroke: #000000; stroke-width: 0.8"/>
      </g>
     </g>
     <g id="text_3">
      <!-- SPPB7 -->
      <g transform="translate(240.293095 308.899512) rotate(-45) scale(0.09 -0.09)">
       <defs>
        <path id="DejaVuSans-42" d="M 1259 2228 
L 1259 519 
L 2272 519 
Q 2781 519 3026 730 
Q 3272 941 3272 1375 
Q 3272 1813 3026 2020 
Q 2781 2228 2272 2228 
L 1259 2228 
z
M 1259 4147 
L 1259 2741 
L 2194 2741 
Q 2656 2741 2882 2914 
Q 3109 3088 3109 3444 
Q 3109 3797 2882 3972 
Q 2656 4147 2194 4147 
L 1259 4147 
z
M 628 4666 
L 2241 4666 
Q 2963 4666 3353 4366 
Q 3744 4066 3744 3513 
Q 3744 3084 3544 2831 
Q 3344 2578 2956 2516 
Q 3422 2416 3680 2098 
Q 3938 1781 3938 1306 
Q 3938 681 3513 340 
Q 3088 0 2303 0 
L 628 0 
L 628 4666 
z
" transform="scale(0.015625)"/>
        <path id="DejaVuSans-37" d="M 525 4666 
L 3525 4666 
L 3525 4397 
L 1831 0 
L 1172 0 
L 2766 4134 
L 525 4134 
L 525 4666 
z
" transform="scale(0.015625)"/>
       </defs>
       <use xlink:href="#DejaVuSans-53"/>
       <use xlink:href="#DejaVuSans-50" transform="translate(63.476562 0)"/>
       <use xlink:href="#DejaVuSans-50" transform="translate(123.779297 0)"/>
       <use xlink:href="#DejaVuSans-42" transform="translate(184.082031 0)"/>
       <use xlink:href="#DejaVuSans-37" transform="translate(252.685547 0)"/>
      </g>
     </g>
    </g>
    <g id="xtick_4">
     <g id="line2d_4">
      <g>
       <use xlink:href="#m1a5f9a6e28" x="336.446838" y="276.933891" style="stroke: #000000; stroke-width: 0.8"/>
      </g>
     </g>
     <g id="text_4">
      <!-- Sexe -->
      <g transform="translate(319.795136 304.097704) rotate(-45) scale(0.09 -0.09)">
       <defs>
        <path id="DejaVuSans-65" d="M 3597 1894 
L 3597 1613 
L 953 1613 
Q 991 1019 1311 708 
Q 1631 397 2203 397 
Q 2534 397 2845 478 
Q 3156 559 3463 722 
L 3463 178 
Q 3153 47 2828 -22 
Q 2503 -91 2169 -91 
Q 1331 -91 842 396 
Q 353 884 353 1716 
Q 353 2575 817 3079 
Q 1281 3584 2069 3584 
Q 2775 3584 3186 3129 
Q 3597 2675 3597 1894 
z
M 3022 2063 
Q 3016 2534 2758 2815 
Q 2500 3097 2075 3097 
Q 1594 3097 1305 2825 
Q 1016 2553 972 2059 
L 3022 2063 
z
" transform="scale(0.015625)"/>
        <path id="DejaVuSans-78" d="M 3513 3500 
L 2247 1797 
L 3578 0 
L 2900 0 
L 1881 1375 
L 863 0 
L 184 0 
L 1544 1831 
L 300 3500 
L 978 3500 
L 1906 2253 
L 2834 3500 
L 3513 3500 
z
" transform="scale(0.015625)"/>
       </defs>
       <use xlink:href="#DejaVuSans-53"/>
       <use xlink:href="#DejaVuSans-65" transform="translate(63.476562 0)"/>
       <use xlink:href="#DejaVuSans-78" transform="translate(123.25 0)"/>
       <use xlink:href="#DejaVuSans-65" transform="translate(179.304688 0)"/>
      </g>
     </g>
    </g>
    <g id="xtick_5">
     <g id="line2d_5">
      <g>
       <use xlink:href="#m1a5f9a6e28" x="411.147071" y="276.933891" style="stroke: #000000; stroke-width: 0.8"/>
      </g>
     </g>
     <g id="text_5">
      <!-- SCORE TOTAL SPPB -->
      <g transform="translate(347.5711 351.021973) rotate(-45) scale(0.09 -0.09)">
       <defs>
        <path id="DejaVuSans-20" transform="scale(0.015625)"/>
        <path id="DejaVuSans-54" d="M -19 4666 
L 3928 4666 
L 3928 4134 
L 2272 4134 
L 2272 0 
L 1638 0 
L 1638 4134 
L -19 4134 
L -19 4666 
z
" transform="scale(0.015625)"/>
       </defs>
       <use xlink:href="#DejaVuSans-53"/>
       <use xlink:href="#DejaVuSans-43" transform="translate(63.476562 0)"/>
       <use xlink:href="#DejaVuSans-4f" transform="translate(133.300781 0)"/>
       <use xlink:href="#DejaVuSans-52" transform="translate(212.011719 0)"/>
       <use xlink:href="#DejaVuSans-45" transform="translate(281.494141 0)"/>
       <use xlink:href="#DejaVuSans-20" transform="translate(344.677734 0)"/>
       <use xlink:href="#DejaVuSans-54" transform="translate(376.464844 0)"/>
       <use xlink:href="#DejaVuSans-4f" transform="translate(437.548828 0)"/>
       <use xlink:href="#DejaVuSans-54" transform="translate(516.259766 0)"/>
       <use xlink:href="#DejaVuSans-41" transform="translate(569.59375 0)"/>
       <use xlink:href="#DejaVuSans-4c" transform="translate(638.001953 0)"/>
       <use xlink:href="#DejaVuSans-20" transform="translate(693.714844 0)"/>
       <use xlink:href="#DejaVuSans-53" transform="translate(725.501953 0)"/>
       <use xlink:href="#DejaVuSans-50" transform="translate(788.978516 0)"/>
       <use xlink:href="#DejaVuSans-50" transform="translate(849.28125 0)"/>
       <use xlink:href="#DejaVuSans-42" transform="translate(909.583984 0)"/>
      </g>
     </g>
    </g>
    <g id="xtick_6">
     <g id="line2d_6">
      <g>
       <use xlink:href="#m1a5f9a6e28" x="485.847304" y="276.933891" style="stroke: #000000; stroke-width: 0.8"/>
      </g>
     </g>
     <g id="text_6">
      <!-- SPPB06 -->
      <g transform="translate(460.344725 312.948582) rotate(-45) scale(0.09 -0.09)">
       <defs>
        <path id="DejaVuSans-36" d="M 2113 2584 
Q 1688 2584 1439 2293 
Q 1191 2003 1191 1497 
Q 1191 994 1439 701 
Q 1688 409 2113 409 
Q 2538 409 2786 701 
Q 3034 994 3034 1497 
Q 3034 2003 2786 2293 
Q 2538 2584 2113 2584 
z
M 3366 4563 
L 3366 3988 
Q 3128 4100 2886 4159 
Q 2644 4219 2406 4219 
Q 1781 4219 1451 3797 
Q 1122 3375 1075 2522 
Q 1259 2794 1537 2939 
Q 1816 3084 2150 3084 
Q 2853 3084 3261 2657 
Q 3669 2231 3669 1497 
Q 3669 778 3244 343 
Q 2819 -91 2113 -91 
Q 1303 -91 875 529 
Q 447 1150 447 2328 
Q 447 3434 972 4092 
Q 1497 4750 2381 4750 
Q 2619 4750 2861 4703 
Q 3103 4656 3366 4563 
z
" transform="scale(0.015625)"/>
       </defs>
       <use xlink:href="#DejaVuSans-53"/>
       <use xlink:href="#DejaVuSans-50" transform="translate(63.476562 0)"/>
       <use xlink:href="#DejaVuSans-50" transform="translate(123.779297 0)"/>
       <use xlink:href="#DejaVuSans-42" transform="translate(184.082031 0)"/>
       <use xlink:href="#DejaVuSans-30" transform="translate(252.685547 0)"/>
       <use xlink:href="#DejaVuSans-36" transform="translate(316.308594 0)"/>
      </g>
     </g>
    </g>
    <g id="xtick_7">
     <g id="line2d_7">
      <g>
       <use xlink:href="#m1a5f9a6e28" x="560.547537" y="276.933891" style="stroke: #000000; stroke-width: 0.8"/>
      </g>
     </g>
     <g id="text_7">
      <!-- SF36-Physical functioning -->
      <g transform="translate(477.382499 370.611041) rotate(-45) scale(0.09 -0.09)">
       <defs>
        <path id="DejaVuSans-33" d="M 2597 2516 
Q 3050 2419 3304 2112 
Q 3559 1806 3559 1356 
Q 3559 666 3084 287 
Q 2609 -91 1734 -91 
Q 1441 -91 1130 -33 
Q 819 25 488 141 
L 488 750 
Q 750 597 1062 519 
Q 1375 441 1716 441 
Q 2309 441 2620 675 
Q 2931 909 2931 1356 
Q 2931 1769 2642 2001 
Q 2353 2234 1838 2234 
L 1294 2234 
L 1294 2753 
L 1863 2753 
Q 2328 2753 2575 2939 
Q 2822 3125 2822 3475 
Q 2822 3834 2567 4026 
Q 2313 4219 1838 4219 
Q 1578 4219 1281 4162 
Q 984 4106 628 3988 
L 628 4550 
Q 988 4650 1302 4700 
Q 1616 4750 1894 4750 
Q 2613 4750 3031 4423 
Q 3450 4097 3450 3541 
Q 3450 3153 3228 2886 
Q 3006 2619 2597 2516 
z
" transform="scale(0.015625)"/>
        <path id="DejaVuSans-2d" d="M 313 2009 
L 1997 2009 
L 1997 1497 
L 313 1497 
L 313 2009 
z
" transform="scale(0.015625)"/>
        <path id="DejaVuSans-68" d="M 3513 2113 
L 3513 0 
L 2938 0 
L 2938 2094 
Q 2938 2591 2744 2837 
Q 2550 3084 2163 3084 
Q 1697 3084 1428 2787 
Q 1159 2491 1159 1978 
L 1159 0 
L 581 0 
L 581 4863 
L 1159 4863 
L 1159 2956 
Q 1366 3272 1645 3428 
Q 1925 3584 2291 3584 
Q 2894 3584 3203 3211 
Q 3513 2838 3513 2113 
z
" transform="scale(0.015625)"/>
        <path id="DejaVuSans-79" d="M 2059 -325 
Q 1816 -950 1584 -1140 
Q 1353 -1331 966 -1331 
L 506 -1331 
L 506 -850 
L 844 -850 
Q 1081 -850 1212 -737 
Q 1344 -625 1503 -206 
L 1606 56 
L 191 3500 
L 800 3500 
L 1894 763 
L 2988 3500 
L 3597 3500 
L 2059 -325 
z
" transform="scale(0.015625)"/>
        <path id="DejaVuSans-73" d="M 2834 3397 
L 2834 2853 
Q 2591 2978 2328 3040 
Q 2066 3103 1784 3103 
Q 1356 3103 1142 2972 
Q 928 2841 928 2578 
Q 928 2378 1081 2264 
Q 1234 2150 1697 2047 
L 1894 2003 
Q 2506 1872 2764 1633 
Q 3022 1394 3022 966 
Q 3022 478 2636 193 
Q 2250 -91 1575 -91 
Q 1294 -91 989 -36 
Q 684 19 347 128 
L 347 722 
Q 666 556 975 473 
Q 1284 391 1588 391 
Q 1994 391 2212 530 
Q 2431 669 2431 922 
Q 2431 1156 2273 1281 
Q 2116 1406 1581 1522 
L 1381 1569 
Q 847 1681 609 1914 
Q 372 2147 372 2553 
Q 372 3047 722 3315 
Q 1072 3584 1716 3584 
Q 2034 3584 2315 3537 
Q 2597 3491 2834 3397 
z
" transform="scale(0.015625)"/>
        <path id="DejaVuSans-69" d="M 603 3500 
L 1178 3500 
L 1178 0 
L 603 0 
L 603 3500 
z
M 603 4863 
L 1178 4863 
L 1178 4134 
L 603 4134 
L 603 4863 
z
" transform="scale(0.015625)"/>
        <path id="DejaVuSans-63" d="M 3122 3366 
L 3122 2828 
Q 2878 2963 2633 3030 
Q 2388 3097 2138 3097 
Q 1578 3097 1268 2742 
Q 959 2388 959 1747 
Q 959 1106 1268 751 
Q 1578 397 2138 397 
Q 2388 397 2633 464 
Q 2878 531 3122 666 
L 3122 134 
Q 2881 22 2623 -34 
Q 2366 -91 2075 -91 
Q 1284 -91 818 406 
Q 353 903 353 1747 
Q 353 2603 823 3093 
Q 1294 3584 2113 3584 
Q 2378 3584 2631 3529 
Q 2884 3475 3122 3366 
z
" transform="scale(0.015625)"/>
        <path id="DejaVuSans-61" d="M 2194 1759 
Q 1497 1759 1228 1600 
Q 959 1441 959 1056 
Q 959 750 1161 570 
Q 1363 391 1709 391 
Q 2188 391 2477 730 
Q 2766 1069 2766 1631 
L 2766 1759 
L 2194 1759 
z
M 3341 1997 
L 3341 0 
L 2766 0 
L 2766 531 
Q 2569 213 2275 61 
Q 1981 -91 1556 -91 
Q 1019 -91 701 211 
Q 384 513 384 1019 
Q 384 1609 779 1909 
Q 1175 2209 1959 2209 
L 2766 2209 
L 2766 2266 
Q 2766 2663 2505 2880 
Q 2244 3097 1772 3097 
Q 1472 3097 1187 3025 
Q 903 2953 641 2809 
L 641 3341 
Q 956 3463 1253 3523 
Q 1550 3584 1831 3584 
Q 2591 3584 2966 3190 
Q 3341 2797 3341 1997 
z
" transform="scale(0.015625)"/>
        <path id="DejaVuSans-6c" d="M 603 4863 
L 1178 4863 
L 1178 0 
L 603 0 
L 603 4863 
z
" transform="scale(0.015625)"/>
        <path id="DejaVuSans-66" d="M 2375 4863 
L 2375 4384 
L 1825 4384 
Q 1516 4384 1395 4259 
Q 1275 4134 1275 3809 
L 1275 3500 
L 2222 3500 
L 2222 3053 
L 1275 3053 
L 1275 0 
L 697 0 
L 697 3053 
L 147 3053 
L 147 3500 
L 697 3500 
L 697 3744 
Q 697 4328 969 4595 
Q 1241 4863 1831 4863 
L 2375 4863 
z
" transform="scale(0.015625)"/>
        <path id="DejaVuSans-75" d="M 544 1381 
L 544 3500 
L 1119 3500 
L 1119 1403 
Q 1119 906 1312 657 
Q 1506 409 1894 409 
Q 2359 409 2629 706 
Q 2900 1003 2900 1516 
L 2900 3500 
L 3475 3500 
L 3475 0 
L 2900 0 
L 2900 538 
Q 2691 219 2414 64 
Q 2138 -91 1772 -91 
Q 1169 -91 856 284 
Q 544 659 544 1381 
z
M 1991 3584 
L 1991 3584 
z
" transform="scale(0.015625)"/>
        <path id="DejaVuSans-6e" d="M 3513 2113 
L 3513 0 
L 2938 0 
L 2938 2094 
Q 2938 2591 2744 2837 
Q 2550 3084 2163 3084 
Q 1697 3084 1428 2787 
Q 1159 2491 1159 1978 
L 1159 0 
L 581 0 
L 581 3500 
L 1159 3500 
L 1159 2956 
Q 1366 3272 1645 3428 
Q 1925 3584 2291 3584 
Q 2894 3584 3203 3211 
Q 3513 2838 3513 2113 
z
" transform="scale(0.015625)"/>
        <path id="DejaVuSans-74" d="M 1172 4494 
L 1172 3500 
L 2356 3500 
L 2356 3053 
L 1172 3053 
L 1172 1153 
Q 1172 725 1289 603 
Q 1406 481 1766 481 
L 2356 481 
L 2356 0 
L 1766 0 
Q 1100 0 847 248 
Q 594 497 594 1153 
L 594 3053 
L 172 3053 
L 172 3500 
L 594 3500 
L 594 4494 
L 1172 4494 
z
" transform="scale(0.015625)"/>
        <path id="DejaVuSans-6f" d="M 1959 3097 
Q 1497 3097 1228 2736 
Q 959 2375 959 1747 
Q 959 1119 1226 758 
Q 1494 397 1959 397 
Q 2419 397 2687 759 
Q 2956 1122 2956 1747 
Q 2956 2369 2687 2733 
Q 2419 3097 1959 3097 
z
M 1959 3584 
Q 2709 3584 3137 3096 
Q 3566 2609 3566 1747 
Q 3566 888 3137 398 
Q 2709 -91 1959 -91 
Q 1206 -91 779 398 
Q 353 888 353 1747 
Q 353 2609 779 3096 
Q 1206 3584 1959 3584 
z
" transform="scale(0.015625)"/>
        <path id="DejaVuSans-67" d="M 2906 1791 
Q 2906 2416 2648 2759 
Q 2391 3103 1925 3103 
Q 1463 3103 1205 2759 
Q 947 2416 947 1791 
Q 947 1169 1205 825 
Q 1463 481 1925 481 
Q 2391 481 2648 825 
Q 2906 1169 2906 1791 
z
M 3481 434 
Q 3481 -459 3084 -895 
Q 2688 -1331 1869 -1331 
Q 1566 -1331 1297 -1286 
Q 1028 -1241 775 -1147 
L 775 -588 
Q 1028 -725 1275 -790 
Q 1522 -856 1778 -856 
Q 2344 -856 2625 -561 
Q 2906 -266 2906 331 
L 2906 616 
Q 2728 306 2450 153 
Q 2172 0 1784 0 
Q 1141 0 747 490 
Q 353 981 353 1791 
Q 353 2603 747 3093 
Q 1141 3584 1784 3584 
Q 2172 3584 2450 3431 
Q 2728 3278 2906 2969 
L 2906 3500 
L 3481 3500 
L 3481 434 
z
" transform="scale(0.015625)"/>
       </defs>
       <use xlink:href="#DejaVuSans-53"/>
       <use xlink:href="#DejaVuSans-46" transform="translate(63.476562 0)"/>
       <use xlink:href="#DejaVuSans-33" transform="translate(120.996094 0)"/>
       <use xlink:href="#DejaVuSans-36" transform="translate(184.619141 0)"/>
       <use xlink:href="#DejaVuSans-2d" transform="translate(248.242188 0)"/>
       <use xlink:href="#DejaVuSans-50" transform="translate(284.326172 0)"/>
       <use xlink:href="#DejaVuSans-68" transform="translate(344.628906 0)"/>
       <use xlink:href="#DejaVuSans-79" transform="translate(408.007812 0)"/>
       <use xlink:href="#DejaVuSans-73" transform="translate(467.1875 0)"/>
       <use xlink:href="#DejaVuSans-69" transform="translate(519.287109 0)"/>
       <use xlink:href="#DejaVuSans-63" transform="translate(547.070312 0)"/>
       <use xlink:href="#DejaVuSans-61" transform="translate(602.050781 0)"/>
       <use xlink:href="#DejaVuSans-6c" transform="translate(663.330078 0)"/>
       <use xlink:href="#DejaVuSans-20" transform="translate(691.113281 0)"/>
       <use xlink:href="#DejaVuSans-66" transform="translate(722.900391 0)"/>
       <use xlink:href="#DejaVuSans-75" transform="translate(758.105469 0)"/>
       <use xlink:href="#DejaVuSans-6e" transform="translate(821.484375 0)"/>
       <use xlink:href="#DejaVuSans-63" transform="translate(884.863281 0)"/>
       <use xlink:href="#DejaVuSans-74" transform="translate(939.84375 0)"/>
       <use xlink:href="#DejaVuSans-69" transform="translate(979.052734 0)"/>
       <use xlink:href="#DejaVuSans-6f" transform="translate(1006.835938 0)"/>
       <use xlink:href="#DejaVuSans-6e" transform="translate(1068.017578 0)"/>
       <use xlink:href="#DejaVuSans-69" transform="translate(1131.396484 0)"/>
       <use xlink:href="#DejaVuSans-6e" transform="translate(1159.179688 0)"/>
       <use xlink:href="#DejaVuSans-67" transform="translate(1222.558594 0)"/>
      </g>
     </g>
    </g>
    <g id="xtick_8">
     <g id="line2d_8">
      <g>
       <use xlink:href="#m1a5f9a6e28" x="635.24777" y="276.933891" style="stroke: #000000; stroke-width: 0.8"/>
      </g>
     </g>
     <g id="text_8">
      <!-- zero_crossing_SPD_ML_YF_baseline -->
      <g transform="translate(521.858889 400.657886) rotate(-45) scale(0.09 -0.09)">
       <defs>
        <path id="DejaVuSans-7a" d="M 353 3500 
L 3084 3500 
L 3084 2975 
L 922 459 
L 3084 459 
L 3084 0 
L 275 0 
L 275 525 
L 2438 3041 
L 353 3041 
L 353 3500 
z
" transform="scale(0.015625)"/>
        <path id="DejaVuSans-72" d="M 2631 2963 
Q 2534 3019 2420 3045 
Q 2306 3072 2169 3072 
Q 1681 3072 1420 2755 
Q 1159 2438 1159 1844 
L 1159 0 
L 581 0 
L 581 3500 
L 1159 3500 
L 1159 2956 
Q 1341 3275 1631 3429 
Q 1922 3584 2338 3584 
Q 2397 3584 2469 3576 
Q 2541 3569 2628 3553 
L 2631 2963 
z
" transform="scale(0.015625)"/>
        <path id="DejaVuSans-5f" d="M 3263 -1063 
L 3263 -1509 
L -63 -1509 
L -63 -1063 
L 3263 -1063 
z
" transform="scale(0.015625)"/>
        <path id="DejaVuSans-44" d="M 1259 4147 
L 1259 519 
L 2022 519 
Q 2988 519 3436 956 
Q 3884 1394 3884 2338 
Q 3884 3275 3436 3711 
Q 2988 4147 2022 4147 
L 1259 4147 
z
M 628 4666 
L 1925 4666 
Q 3281 4666 3915 4102 
Q 4550 3538 4550 2338 
Q 4550 1131 3912 565 
Q 3275 0 1925 0 
L 628 0 
L 628 4666 
z
" transform="scale(0.015625)"/>
        <path id="DejaVuSans-59" d="M -13 4666 
L 666 4666 
L 1959 2747 
L 3244 4666 
L 3922 4666 
L 2272 2222 
L 2272 0 
L 1638 0 
L 1638 2222 
L -13 4666 
z
" transform="scale(0.015625)"/>
        <path id="DejaVuSans-62" d="M 3116 1747 
Q 3116 2381 2855 2742 
Q 2594 3103 2138 3103 
Q 1681 3103 1420 2742 
Q 1159 2381 1159 1747 
Q 1159 1113 1420 752 
Q 1681 391 2138 391 
Q 2594 391 2855 752 
Q 3116 1113 3116 1747 
z
M 1159 2969 
Q 1341 3281 1617 3432 
Q 1894 3584 2278 3584 
Q 2916 3584 3314 3078 
Q 3713 2572 3713 1747 
Q 3713 922 3314 415 
Q 2916 -91 2278 -91 
Q 1894 -91 1617 61 
Q 1341 213 1159 525 
L 1159 0 
L 581 0 
L 581 4863 
L 1159 4863 
L 1159 2969 
z
" transform="scale(0.015625)"/>
       </defs>
       <use xlink:href="#DejaVuSans-7a"/>
       <use xlink:href="#DejaVuSans-65" transform="translate(52.490234 0)"/>
       <use xlink:href="#DejaVuSans-72" transform="translate(114.013672 0)"/>
       <use xlink:href="#DejaVuSans-6f" transform="translate(152.876953 0)"/>
       <use xlink:href="#DejaVuSans-5f" transform="translate(214.058594 0)"/>
       <use xlink:href="#DejaVuSans-63" transform="translate(264.058594 0)"/>
       <use xlink:href="#DejaVuSans-72" transform="translate(319.039062 0)"/>
       <use xlink:href="#DejaVuSans-6f" transform="translate(357.902344 0)"/>
       <use xlink:href="#DejaVuSans-73" transform="translate(419.083984 0)"/>
       <use xlink:href="#DejaVuSans-73" transform="translate(471.183594 0)"/>
       <use xlink:href="#DejaVuSans-69" transform="translate(523.283203 0)"/>
       <use xlink:href="#DejaVuSans-6e" transform="translate(551.066406 0)"/>
       <use xlink:href="#DejaVuSans-67" transform="translate(614.445312 0)"/>
       <use xlink:href="#DejaVuSans-5f" transform="translate(677.921875 0)"/>
       <use xlink:href="#DejaVuSans-53" transform="translate(727.921875 0)"/>
       <use xlink:href="#DejaVuSans-50" transform="translate(791.398438 0)"/>
       <use xlink:href="#DejaVuSans-44" transform="translate(851.701172 0)"/>
       <use xlink:href="#DejaVuSans-5f" transform="translate(928.703125 0)"/>
       <use xlink:href="#DejaVuSans-4d" transform="translate(978.703125 0)"/>
       <use xlink:href="#DejaVuSans-4c" transform="translate(1064.982422 0)"/>
       <use xlink:href="#DejaVuSans-5f" transform="translate(1120.695312 0)"/>
       <use xlink:href="#DejaVuSans-59" transform="translate(1170.695312 0)"/>
       <use xlink:href="#DejaVuSans-46" transform="translate(1231.779297 0)"/>
       <use xlink:href="#DejaVuSans-5f" transform="translate(1289.298828 0)"/>
       <use xlink:href="#DejaVuSans-62" transform="translate(1339.298828 0)"/>
       <use xlink:href="#DejaVuSans-61" transform="translate(1402.775391 0)"/>
       <use xlink:href="#DejaVuSans-73" transform="translate(1464.054688 0)"/>
       <use xlink:href="#DejaVuSans-65" transform="translate(1516.154297 0)"/>
       <use xlink:href="#DejaVuSans-6c" transform="translate(1577.677734 0)"/>
       <use xlink:href="#DejaVuSans-69" transform="translate(1605.460938 0)"/>
       <use xlink:href="#DejaVuSans-6e" transform="translate(1633.244141 0)"/>
       <use xlink:href="#DejaVuSans-65" transform="translate(1696.623047 0)"/>
      </g>
     </g>
    </g>
    <g id="xtick_9">
     <g id="line2d_9">
      <g>
       <use xlink:href="#m1a5f9a6e28" x="709.948003" y="276.933891" style="stroke: #000000; stroke-width: 0.8"/>
      </g>
     </g>
     <g id="text_9">
      <!-- Ste_FFTqaAP_LB_baseline -->
      <g transform="translate(626.655686 370.561322) rotate(-45) scale(0.09 -0.09)">
       <defs>
        <path id="DejaVuSans-71" d="M 947 1747 
Q 947 1113 1208 752 
Q 1469 391 1925 391 
Q 2381 391 2643 752 
Q 2906 1113 2906 1747 
Q 2906 2381 2643 2742 
Q 2381 3103 1925 3103 
Q 1469 3103 1208 2742 
Q 947 2381 947 1747 
z
M 2906 525 
Q 2725 213 2448 61 
Q 2172 -91 1784 -91 
Q 1150 -91 751 415 
Q 353 922 353 1747 
Q 353 2572 751 3078 
Q 1150 3584 1784 3584 
Q 2172 3584 2448 3432 
Q 2725 3281 2906 2969 
L 2906 3500 
L 3481 3500 
L 3481 -1331 
L 2906 -1331 
L 2906 525 
z
" transform="scale(0.015625)"/>
       </defs>
       <use xlink:href="#DejaVuSans-53"/>
       <use xlink:href="#DejaVuSans-74" transform="translate(63.476562 0)"/>
       <use xlink:href="#DejaVuSans-65" transform="translate(102.685547 0)"/>
       <use xlink:href="#DejaVuSans-5f" transform="translate(164.208984 0)"/>
       <use xlink:href="#DejaVuSans-46" transform="translate(214.208984 0)"/>
       <use xlink:href="#DejaVuSans-46" transform="translate(271.728516 0)"/>
       <use xlink:href="#DejaVuSans-54" transform="translate(327.498047 0)"/>
       <use xlink:href="#DejaVuSans-71" transform="translate(388.582031 0)"/>
       <use xlink:href="#DejaVuSans-61" transform="translate(452.058594 0)"/>
       <use xlink:href="#DejaVuSans-41" transform="translate(513.337891 0)"/>
       <use xlink:href="#DejaVuSans-50" transform="translate(581.746094 0)"/>
       <use xlink:href="#DejaVuSans-5f" transform="translate(642.048828 0)"/>
       <use xlink:href="#DejaVuSans-4c" transform="translate(692.048828 0)"/>
       <use xlink:href="#DejaVuSans-42" transform="translate(747.761719 0)"/>
       <use xlink:href="#DejaVuSans-5f" transform="translate(816.365234 0)"/>
       <use xlink:href="#DejaVuSans-62" transform="translate(866.365234 0)"/>
       <use xlink:href="#DejaVuSans-61" transform="translate(929.841797 0)"/>
       <use xlink:href="#DejaVuSans-73" transform="translate(991.121094 0)"/>
       <use xlink:href="#DejaVuSans-65" transform="translate(1043.220703 0)"/>
       <use xlink:href="#DejaVuSans-6c" transform="translate(1104.744141 0)"/>
       <use xlink:href="#DejaVuSans-69" transform="translate(1132.527344 0)"/>
       <use xlink:href="#DejaVuSans-6e" transform="translate(1160.310547 0)"/>
       <use xlink:href="#DejaVuSans-65" transform="translate(1223.689453 0)"/>
      </g>
     </g>
    </g>
    <g id="xtick_10">
     <g id="line2d_10">
      <g>
       <use xlink:href="#m1a5f9a6e28" x="784.648236" y="276.933891" style="stroke: #000000; stroke-width: 0.8"/>
      </g>
     </g>
     <g id="text_10">
      <!-- SF3609_SQ007_ -->
      <g transform="translate(731.690137 340.11474) rotate(-45) scale(0.09 -0.09)">
       <defs>
        <path id="DejaVuSans-39" d="M 703 97 
L 703 672 
Q 941 559 1184 500 
Q 1428 441 1663 441 
Q 2288 441 2617 861 
Q 2947 1281 2994 2138 
Q 2813 1869 2534 1725 
Q 2256 1581 1919 1581 
Q 1219 1581 811 2004 
Q 403 2428 403 3163 
Q 403 3881 828 4315 
Q 1253 4750 1959 4750 
Q 2769 4750 3195 4129 
Q 3622 3509 3622 2328 
Q 3622 1225 3098 567 
Q 2575 -91 1691 -91 
Q 1453 -91 1209 -44 
Q 966 3 703 97 
z
M 1959 2075 
Q 2384 2075 2632 2365 
Q 2881 2656 2881 3163 
Q 2881 3666 2632 3958 
Q 2384 4250 1959 4250 
Q 1534 4250 1286 3958 
Q 1038 3666 1038 3163 
Q 1038 2656 1286 2365 
Q 1534 2075 1959 2075 
z
" transform="scale(0.015625)"/>
        <path id="DejaVuSans-51" d="M 2522 4238 
Q 1834 4238 1429 3725 
Q 1025 3213 1025 2328 
Q 1025 1447 1429 934 
Q 1834 422 2522 422 
Q 3209 422 3611 934 
Q 4013 1447 4013 2328 
Q 4013 3213 3611 3725 
Q 3209 4238 2522 4238 
z
M 3406 84 
L 4238 -825 
L 3475 -825 
L 2784 -78 
Q 2681 -84 2626 -87 
Q 2572 -91 2522 -91 
Q 1538 -91 948 567 
Q 359 1225 359 2328 
Q 359 3434 948 4092 
Q 1538 4750 2522 4750 
Q 3503 4750 4090 4092 
Q 4678 3434 4678 2328 
Q 4678 1516 4351 937 
Q 4025 359 3406 84 
z
" transform="scale(0.015625)"/>
       </defs>
       <use xlink:href="#DejaVuSans-53"/>
       <use xlink:href="#DejaVuSans-46" transform="translate(63.476562 0)"/>
       <use xlink:href="#DejaVuSans-33" transform="translate(120.996094 0)"/>
       <use xlink:href="#DejaVuSans-36" transform="translate(184.619141 0)"/>
       <use xlink:href="#DejaVuSans-30" transform="translate(248.242188 0)"/>
       <use xlink:href="#DejaVuSans-39" transform="translate(311.865234 0)"/>
       <use xlink:href="#DejaVuSans-5f" transform="translate(375.488281 0)"/>
       <use xlink:href="#DejaVuSans-53" transform="translate(425.488281 0)"/>
       <use xlink:href="#DejaVuSans-51" transform="translate(488.964844 0)"/>
       <use xlink:href="#DejaVuSans-30" transform="translate(567.675781 0)"/>
       <use xlink:href="#DejaVuSans-30" transform="translate(631.298828 0)"/>
       <use xlink:href="#DejaVuSans-37" transform="translate(694.921875 0)"/>
       <use xlink:href="#DejaVuSans-5f" transform="translate(758.544922 0)"/>
      </g>
     </g>
    </g>
    <g id="text_11">
     <!-- Features -->
     <g transform="translate(427.002656 413.756826) scale(0.1 -0.1)">
      <use xlink:href="#DejaVuSans-46"/>
      <use xlink:href="#DejaVuSans-65" transform="translate(52.019531 0)"/>
      <use xlink:href="#DejaVuSans-61" transform="translate(113.542969 0)"/>
      <use xlink:href="#DejaVuSans-74" transform="translate(174.822266 0)"/>
      <use xlink:href="#DejaVuSans-75" transform="translate(214.03125 0)"/>
      <use xlink:href="#DejaVuSans-72" transform="translate(277.410156 0)"/>
      <use xlink:href="#DejaVuSans-65" transform="translate(316.273438 0)"/>
      <use xlink:href="#DejaVuSans-73" transform="translate(377.796875 0)"/>
     </g>
    </g>
   </g>
   <g id="matplotlib.axis_2">
    <g id="ytick_1">
     <g id="line2d_11">
      <path d="M 47.917188 276.933891 
L 849.077188 276.933891 
" clip-path="url(#p5641f10259)" style="fill: none; stroke-dasharray: 2.96,1.28; stroke-dashoffset: 0; stroke: #b0b0b0; stroke-opacity: 0.3; stroke-width: 0.8"/>
     </g>
     <g id="line2d_12">
      <defs>
       <path id="ma40e03112b" d="M 0 0 
L -3.5 0 
" style="stroke: #000000; stroke-width: 0.8"/>
      </defs>
      <g>
       <use xlink:href="#ma40e03112b" x="47.917188" y="276.933891" style="stroke: #000000; stroke-width: 0.8"/>
      </g>
     </g>
     <g id="text_12">
      <!-- 0.00 -->
      <g transform="translate(20.878125 280.353188) scale(0.09 -0.09)">
       <defs>
        <path id="DejaVuSans-2e" d="M 684 794 
L 1344 794 
L 1344 0 
L 684 0 
L 684 794 
z
" transform="scale(0.015625)"/>
       </defs>
       <use xlink:href="#DejaVuSans-30"/>
       <use xlink:href="#DejaVuSans-2e" transform="translate(63.623047 0)"/>
       <use xlink:href="#DejaVuSans-30" transform="translate(95.410156 0)"/>
       <use xlink:href="#DejaVuSans-30" transform="translate(159.033203 0)"/>
      </g>
     </g>
    </g>
    <g id="ytick_2">
     <g id="line2d_13">
      <path d="M 47.917188 228.141812 
L 849.077188 228.141812 
" clip-path="url(#p5641f10259)" style="fill: none; stroke-dasharray: 2.96,1.28; stroke-dashoffset: 0; stroke: #b0b0b0; stroke-opacity: 0.3; stroke-width: 0.8"/>
     </g>
     <g id="line2d_14">
      <g>
       <use xlink:href="#ma40e03112b" x="47.917188" y="228.141812" style="stroke: #000000; stroke-width: 0.8"/>
      </g>
     </g>
     <g id="text_13">
      <!-- 0.05 -->
      <g transform="translate(20.878125 231.561108) scale(0.09 -0.09)">
       <defs>
        <path id="DejaVuSans-35" d="M 691 4666 
L 3169 4666 
L 3169 4134 
L 1269 4134 
L 1269 2991 
Q 1406 3038 1543 3061 
Q 1681 3084 1819 3084 
Q 2600 3084 3056 2656 
Q 3513 2228 3513 1497 
Q 3513 744 3044 326 
Q 2575 -91 1722 -91 
Q 1428 -91 1123 -41 
Q 819 9 494 109 
L 494 744 
Q 775 591 1075 516 
Q 1375 441 1709 441 
Q 2250 441 2565 725 
Q 2881 1009 2881 1497 
Q 2881 1984 2565 2268 
Q 2250 2553 1709 2553 
Q 1456 2553 1204 2497 
Q 953 2441 691 2322 
L 691 4666 
z
" transform="scale(0.015625)"/>
       </defs>
       <use xlink:href="#DejaVuSans-30"/>
       <use xlink:href="#DejaVuSans-2e" transform="translate(63.623047 0)"/>
       <use xlink:href="#DejaVuSans-30" transform="translate(95.410156 0)"/>
       <use xlink:href="#DejaVuSans-35" transform="translate(159.033203 0)"/>
      </g>
     </g>
    </g>
    <g id="ytick_3">
     <g id="line2d_15">
      <path d="M 47.917188 179.349732 
L 849.077188 179.349732 
" clip-path="url(#p5641f10259)" style="fill: none; stroke-dasharray: 2.96,1.28; stroke-dashoffset: 0; stroke: #b0b0b0; stroke-opacity: 0.3; stroke-width: 0.8"/>
     </g>
     <g id="line2d_16">
      <g>
       <use xlink:href="#ma40e03112b" x="47.917188" y="179.349732" style="stroke: #000000; stroke-width: 0.8"/>
      </g>
     </g>
     <g id="text_14">
      <!-- 0.10 -->
      <g transform="translate(20.878125 182.769029) scale(0.09 -0.09)">
       <defs>
        <path id="DejaVuSans-31" d="M 794 531 
L 1825 531 
L 1825 4091 
L 703 3866 
L 703 4441 
L 1819 4666 
L 2450 4666 
L 2450 531 
L 3481 531 
L 3481 0 
L 794 0 
L 794 531 
z
" transform="scale(0.015625)"/>
       </defs>
       <use xlink:href="#DejaVuSans-30"/>
       <use xlink:href="#DejaVuSans-2e" transform="translate(63.623047 0)"/>
       <use xlink:href="#DejaVuSans-31" transform="translate(95.410156 0)"/>
       <use xlink:href="#DejaVuSans-30" transform="translate(159.033203 0)"/>
      </g>
     </g>
    </g>
    <g id="ytick_4">
     <g id="line2d_17">
      <path d="M 47.917188 130.557652 
L 849.077188 130.557652 
" clip-path="url(#p5641f10259)" style="fill: none; stroke-dasharray: 2.96,1.28; stroke-dashoffset: 0; stroke: #b0b0b0; stroke-opacity: 0.3; stroke-width: 0.8"/>
     </g>
     <g id="line2d_18">
      <g>
       <use xlink:href="#ma40e03112b" x="47.917188" y="130.557652" style="stroke: #000000; stroke-width: 0.8"/>
      </g>
     </g>
     <g id="text_15">
      <!-- 0.15 -->
      <g transform="translate(20.878125 133.976949) scale(0.09 -0.09)">
       <use xlink:href="#DejaVuSans-30"/>
       <use xlink:href="#DejaVuSans-2e" transform="translate(63.623047 0)"/>
       <use xlink:href="#DejaVuSans-31" transform="translate(95.410156 0)"/>
       <use xlink:href="#DejaVuSans-35" transform="translate(159.033203 0)"/>
      </g>
     </g>
    </g>
    <g id="ytick_5">
     <g id="line2d_19">
      <path d="M 47.917188 81.765572 
L 849.077188 81.765572 
" clip-path="url(#p5641f10259)" style="fill: none; stroke-dasharray: 2.96,1.28; stroke-dashoffset: 0; stroke: #b0b0b0; stroke-opacity: 0.3; stroke-width: 0.8"/>
     </g>
     <g id="line2d_20">
      <g>
       <use xlink:href="#ma40e03112b" x="47.917188" y="81.765572" style="stroke: #000000; stroke-width: 0.8"/>
      </g>
     </g>
     <g id="text_16">
      <!-- 0.20 -->
      <g transform="translate(20.878125 85.184869) scale(0.09 -0.09)">
       <use xlink:href="#DejaVuSans-30"/>
       <use xlink:href="#DejaVuSans-2e" transform="translate(63.623047 0)"/>
       <use xlink:href="#DejaVuSans-32" transform="translate(95.410156 0)"/>
       <use xlink:href="#DejaVuSans-30" transform="translate(159.033203 0)"/>
      </g>
     </g>
    </g>
    <g id="text_17">
     <!-- Normalized Importance -->
     <g transform="translate(14.798438 215.223664) rotate(-90) scale(0.1 -0.1)">
      <defs>
       <path id="DejaVuSans-6d" d="M 3328 2828 
Q 3544 3216 3844 3400 
Q 4144 3584 4550 3584 
Q 5097 3584 5394 3201 
Q 5691 2819 5691 2113 
L 5691 0 
L 5113 0 
L 5113 2094 
Q 5113 2597 4934 2840 
Q 4756 3084 4391 3084 
Q 3944 3084 3684 2787 
Q 3425 2491 3425 1978 
L 3425 0 
L 2847 0 
L 2847 2094 
Q 2847 2600 2669 2842 
Q 2491 3084 2119 3084 
Q 1678 3084 1418 2786 
Q 1159 2488 1159 1978 
L 1159 0 
L 581 0 
L 581 3500 
L 1159 3500 
L 1159 2956 
Q 1356 3278 1631 3431 
Q 1906 3584 2284 3584 
Q 2666 3584 2933 3390 
Q 3200 3197 3328 2828 
z
" transform="scale(0.015625)"/>
       <path id="DejaVuSans-64" d="M 2906 2969 
L 2906 4863 
L 3481 4863 
L 3481 0 
L 2906 0 
L 2906 525 
Q 2725 213 2448 61 
Q 2172 -91 1784 -91 
Q 1150 -91 751 415 
Q 353 922 353 1747 
Q 353 2572 751 3078 
Q 1150 3584 1784 3584 
Q 2172 3584 2448 3432 
Q 2725 3281 2906 2969 
z
M 947 1747 
Q 947 1113 1208 752 
Q 1469 391 1925 391 
Q 2381 391 2643 752 
Q 2906 1113 2906 1747 
Q 2906 2381 2643 2742 
Q 2381 3103 1925 3103 
Q 1469 3103 1208 2742 
Q 947 2381 947 1747 
z
" transform="scale(0.015625)"/>
       <path id="DejaVuSans-70" d="M 1159 525 
L 1159 -1331 
L 581 -1331 
L 581 3500 
L 1159 3500 
L 1159 2969 
Q 1341 3281 1617 3432 
Q 1894 3584 2278 3584 
Q 2916 3584 3314 3078 
Q 3713 2572 3713 1747 
Q 3713 922 3314 415 
Q 2916 -91 2278 -91 
Q 1894 -91 1617 61 
Q 1341 213 1159 525 
z
M 3116 1747 
Q 3116 2381 2855 2742 
Q 2594 3103 2138 3103 
Q 1681 3103 1420 2742 
Q 1159 2381 1159 1747 
Q 1159 1113 1420 752 
Q 1681 391 2138 391 
Q 2594 391 2855 752 
Q 3116 1113 3116 1747 
z
" transform="scale(0.015625)"/>
      </defs>
      <use xlink:href="#DejaVuSans-4e"/>
      <use xlink:href="#DejaVuSans-6f" transform="translate(74.804688 0)"/>
      <use xlink:href="#DejaVuSans-72" transform="translate(135.986328 0)"/>
      <use xlink:href="#DejaVuSans-6d" transform="translate(175.349609 0)"/>
      <use xlink:href="#DejaVuSans-61" transform="translate(272.761719 0)"/>
      <use xlink:href="#DejaVuSans-6c" transform="translate(334.041016 0)"/>
      <use xlink:href="#DejaVuSans-69" transform="translate(361.824219 0)"/>
      <use xlink:href="#DejaVuSans-7a" transform="translate(389.607422 0)"/>
      <use xlink:href="#DejaVuSans-65" transform="translate(442.097656 0)"/>
      <use xlink:href="#DejaVuSans-64" transform="translate(503.621094 0)"/>
      <use xlink:href="#DejaVuSans-20" transform="translate(567.097656 0)"/>
      <use xlink:href="#DejaVuSans-49" transform="translate(598.884766 0)"/>
      <use xlink:href="#DejaVuSans-6d" transform="translate(628.376953 0)"/>
      <use xlink:href="#DejaVuSans-70" transform="translate(725.789062 0)"/>
      <use xlink:href="#DejaVuSans-6f" transform="translate(789.265625 0)"/>
      <use xlink:href="#DejaVuSans-72" transform="translate(850.447266 0)"/>
      <use xlink:href="#DejaVuSans-74" transform="translate(891.560547 0)"/>
      <use xlink:href="#DejaVuSans-61" transform="translate(930.769531 0)"/>
      <use xlink:href="#DejaVuSans-6e" transform="translate(992.048828 0)"/>
      <use xlink:href="#DejaVuSans-63" transform="translate(1055.427734 0)"/>
      <use xlink:href="#DejaVuSans-65" transform="translate(1110.408203 0)"/>
     </g>
    </g>
   </g>
   <g id="LineCollection_1">
    <path d="M 93.67108 130.073886 
L 93.67108 47.776019 
" clip-path="url(#p5641f10259)" style="fill: none; stroke: #000000; stroke-opacity: 0.5"/>
    <path d="M 168.371313 171.901797 
L 168.371313 86.566341 
" clip-path="url(#p5641f10259)" style="fill: none; stroke: #000000; stroke-opacity: 0.5"/>
    <path d="M 243.071546 217.850473 
L 243.071546 141.089642 
" clip-path="url(#p5641f10259)" style="fill: none; stroke: #000000; stroke-opacity: 0.5"/>
    <path d="M 317.77178 240.867621 
L 317.77178 188.463041 
" clip-path="url(#p5641f10259)" style="fill: none; stroke: #000000; stroke-opacity: 0.5"/>
    <path d="M 392.472013 276.362251 
L 392.472013 266.676217 
" clip-path="url(#p5641f10259)" style="fill: none; stroke: #000000; stroke-opacity: 0.5"/>
    <path d="M 467.172246 269.125104 
L 467.172246 187.278845 
" clip-path="url(#p5641f10259)" style="fill: none; stroke: #000000; stroke-opacity: 0.5"/>
    <path d="M 541.872479 273.662878 
L 541.872479 264.562561 
" clip-path="url(#p5641f10259)" style="fill: none; stroke: #000000; stroke-opacity: 0.5"/>
    <path d="M 616.572712 267.635236 
L 616.572712 236.297373 
" clip-path="url(#p5641f10259)" style="fill: none; stroke: #000000; stroke-opacity: 0.5"/>
    <path d="M 691.272945 276.933891 
L 691.272945 276.933891 
" clip-path="url(#p5641f10259)" style="fill: none; stroke: #000000; stroke-opacity: 0.5"/>
    <path d="M 765.973178 273.631079 
L 765.973178 217.667329 
" clip-path="url(#p5641f10259)" style="fill: none; stroke: #000000; stroke-opacity: 0.5"/>
   </g>
   <g id="line2d_21">
    <defs>
     <path id="m1cf31ad1cd" d="M 3 0 
L -3 -0 
" style="stroke: #000000; stroke-opacity: 0.5"/>
    </defs>
    <g clip-path="url(#p5641f10259)">
     <use xlink:href="#m1cf31ad1cd" x="93.67108" y="130.073886" style="fill-opacity: 0.5; stroke: #000000; stroke-opacity: 0.5"/>
     <use xlink:href="#m1cf31ad1cd" x="168.371313" y="171.901797" style="fill-opacity: 0.5; stroke: #000000; stroke-opacity: 0.5"/>
     <use xlink:href="#m1cf31ad1cd" x="243.071546" y="217.850473" style="fill-opacity: 0.5; stroke: #000000; stroke-opacity: 0.5"/>
     <use xlink:href="#m1cf31ad1cd" x="317.77178" y="240.867621" style="fill-opacity: 0.5; stroke: #000000; stroke-opacity: 0.5"/>
     <use xlink:href="#m1cf31ad1cd" x="392.472013" y="276.362251" style="fill-opacity: 0.5; stroke: #000000; stroke-opacity: 0.5"/>
     <use xlink:href="#m1cf31ad1cd" x="467.172246" y="269.125104" style="fill-opacity: 0.5; stroke: #000000; stroke-opacity: 0.5"/>
     <use xlink:href="#m1cf31ad1cd" x="541.872479" y="273.662878" style="fill-opacity: 0.5; stroke: #000000; stroke-opacity: 0.5"/>
     <use xlink:href="#m1cf31ad1cd" x="616.572712" y="267.635236" style="fill-opacity: 0.5; stroke: #000000; stroke-opacity: 0.5"/>
     <use xlink:href="#m1cf31ad1cd" x="691.272945" y="276.933891" style="fill-opacity: 0.5; stroke: #000000; stroke-opacity: 0.5"/>
     <use xlink:href="#m1cf31ad1cd" x="765.973178" y="273.631079" style="fill-opacity: 0.5; stroke: #000000; stroke-opacity: 0.5"/>
    </g>
   </g>
   <g id="line2d_22">
    <g clip-path="url(#p5641f10259)">
     <use xlink:href="#m1cf31ad1cd" x="93.67108" y="47.776019" style="fill-opacity: 0.5; stroke: #000000; stroke-opacity: 0.5"/>
     <use xlink:href="#m1cf31ad1cd" x="168.371313" y="86.566341" style="fill-opacity: 0.5; stroke: #000000; stroke-opacity: 0.5"/>
     <use xlink:href="#m1cf31ad1cd" x="243.071546" y="141.089642" style="fill-opacity: 0.5; stroke: #000000; stroke-opacity: 0.5"/>
     <use xlink:href="#m1cf31ad1cd" x="317.77178" y="188.463041" style="fill-opacity: 0.5; stroke: #000000; stroke-opacity: 0.5"/>
     <use xlink:href="#m1cf31ad1cd" x="392.472013" y="266.676217" style="fill-opacity: 0.5; stroke: #000000; stroke-opacity: 0.5"/>
     <use xlink:href="#m1cf31ad1cd" x="467.172246" y="187.278845" style="fill-opacity: 0.5; stroke: #000000; stroke-opacity: 0.5"/>
     <use xlink:href="#m1cf31ad1cd" x="541.872479" y="264.562561" style="fill-opacity: 0.5; stroke: #000000; stroke-opacity: 0.5"/>
     <use xlink:href="#m1cf31ad1cd" x="616.572712" y="236.297373" style="fill-opacity: 0.5; stroke: #000000; stroke-opacity: 0.5"/>
     <use xlink:href="#m1cf31ad1cd" x="691.272945" y="276.933891" style="fill-opacity: 0.5; stroke: #000000; stroke-opacity: 0.5"/>
     <use xlink:href="#m1cf31ad1cd" x="765.973178" y="217.667329" style="fill-opacity: 0.5; stroke: #000000; stroke-opacity: 0.5"/>
    </g>
   </g>
   <g id="LineCollection_2">
    <path d="M 112.346139 254.913927 
L 112.346139 247.11951 
" clip-path="url(#p5641f10259)" style="fill: none; stroke: #000000; stroke-opacity: 0.5"/>
    <path d="M 187.046372 257.552976 
L 187.046372 246.902377 
" clip-path="url(#p5641f10259)" style="fill: none; stroke: #000000; stroke-opacity: 0.5"/>
    <path d="M 261.746605 262.572258 
L 261.746605 251.777637 
" clip-path="url(#p5641f10259)" style="fill: none; stroke: #000000; stroke-opacity: 0.5"/>
    <path d="M 336.446838 270.552808 
L 336.446838 266.768384 
" clip-path="url(#p5641f10259)" style="fill: none; stroke: #000000; stroke-opacity: 0.5"/>
    <path d="M 411.147071 264.957345 
L 411.147071 249.432444 
" clip-path="url(#p5641f10259)" style="fill: none; stroke: #000000; stroke-opacity: 0.5"/>
    <path d="M 485.847304 269.816733 
L 485.847304 264.810248 
" clip-path="url(#p5641f10259)" style="fill: none; stroke: #000000; stroke-opacity: 0.5"/>
    <path d="M 560.547537 258.112645 
L 560.547537 228.540885 
" clip-path="url(#p5641f10259)" style="fill: none; stroke: #000000; stroke-opacity: 0.5"/>
    <path d="M 635.24777 264.464222 
L 635.24777 234.182594 
" clip-path="url(#p5641f10259)" style="fill: none; stroke: #000000; stroke-opacity: 0.5"/>
    <path d="M 709.948003 267.747591 
L 709.948003 251.914842 
" clip-path="url(#p5641f10259)" style="fill: none; stroke: #000000; stroke-opacity: 0.5"/>
    <path d="M 784.648236 269.595853 
L 784.648236 260.062298 
" clip-path="url(#p5641f10259)" style="fill: none; stroke: #000000; stroke-opacity: 0.5"/>
   </g>
   <g id="line2d_23">
    <g clip-path="url(#p5641f10259)">
     <use xlink:href="#m1cf31ad1cd" x="112.346139" y="254.913927" style="fill-opacity: 0.5; stroke: #000000; stroke-opacity: 0.5"/>
     <use xlink:href="#m1cf31ad1cd" x="187.046372" y="257.552976" style="fill-opacity: 0.5; stroke: #000000; stroke-opacity: 0.5"/>
     <use xlink:href="#m1cf31ad1cd" x="261.746605" y="262.572258" style="fill-opacity: 0.5; stroke: #000000; stroke-opacity: 0.5"/>
     <use xlink:href="#m1cf31ad1cd" x="336.446838" y="270.552808" style="fill-opacity: 0.5; stroke: #000000; stroke-opacity: 0.5"/>
     <use xlink:href="#m1cf31ad1cd" x="411.147071" y="264.957345" style="fill-opacity: 0.5; stroke: #000000; stroke-opacity: 0.5"/>
     <use xlink:href="#m1cf31ad1cd" x="485.847304" y="269.816733" style="fill-opacity: 0.5; stroke: #000000; stroke-opacity: 0.5"/>
     <use xlink:href="#m1cf31ad1cd" x="560.547537" y="258.112645" style="fill-opacity: 0.5; stroke: #000000; stroke-opacity: 0.5"/>
     <use xlink:href="#m1cf31ad1cd" x="635.24777" y="264.464222" style="fill-opacity: 0.5; stroke: #000000; stroke-opacity: 0.5"/>
     <use xlink:href="#m1cf31ad1cd" x="709.948003" y="267.747591" style="fill-opacity: 0.5; stroke: #000000; stroke-opacity: 0.5"/>
     <use xlink:href="#m1cf31ad1cd" x="784.648236" y="269.595853" style="fill-opacity: 0.5; stroke: #000000; stroke-opacity: 0.5"/>
    </g>
   </g>
   <g id="line2d_24">
    <g clip-path="url(#p5641f10259)">
     <use xlink:href="#m1cf31ad1cd" x="112.346139" y="247.11951" style="fill-opacity: 0.5; stroke: #000000; stroke-opacity: 0.5"/>
     <use xlink:href="#m1cf31ad1cd" x="187.046372" y="246.902377" style="fill-opacity: 0.5; stroke: #000000; stroke-opacity: 0.5"/>
     <use xlink:href="#m1cf31ad1cd" x="261.746605" y="251.777637" style="fill-opacity: 0.5; stroke: #000000; stroke-opacity: 0.5"/>
     <use xlink:href="#m1cf31ad1cd" x="336.446838" y="266.768384" style="fill-opacity: 0.5; stroke: #000000; stroke-opacity: 0.5"/>
     <use xlink:href="#m1cf31ad1cd" x="411.147071" y="249.432444" style="fill-opacity: 0.5; stroke: #000000; stroke-opacity: 0.5"/>
     <use xlink:href="#m1cf31ad1cd" x="485.847304" y="264.810248" style="fill-opacity: 0.5; stroke: #000000; stroke-opacity: 0.5"/>
     <use xlink:href="#m1cf31ad1cd" x="560.547537" y="228.540885" style="fill-opacity: 0.5; stroke: #000000; stroke-opacity: 0.5"/>
     <use xlink:href="#m1cf31ad1cd" x="635.24777" y="234.182594" style="fill-opacity: 0.5; stroke: #000000; stroke-opacity: 0.5"/>
     <use xlink:href="#m1cf31ad1cd" x="709.948003" y="251.914842" style="fill-opacity: 0.5; stroke: #000000; stroke-opacity: 0.5"/>
     <use xlink:href="#m1cf31ad1cd" x="784.648236" y="260.062298" style="fill-opacity: 0.5; stroke: #000000; stroke-opacity: 0.5"/>
    </g>
   </g>
   <g id="LineCollection_3">
    <path d="M 131.021197 183.107847 
L 131.021197 144.336123 
" clip-path="url(#p5641f10259)" style="fill: none; stroke: #000000; stroke-opacity: 0.5"/>
    <path d="M 205.72143 170.190711 
L 205.72143 116.33706 
" clip-path="url(#p5641f10259)" style="fill: none; stroke: #000000; stroke-opacity: 0.5"/>
    <path d="M 280.421663 234.10364 
L 280.421663 206.030297 
" clip-path="url(#p5641f10259)" style="fill: none; stroke: #000000; stroke-opacity: 0.5"/>
    <path d="M 355.121896 224.758903 
L 355.121896 175.442787 
" clip-path="url(#p5641f10259)" style="fill: none; stroke: #000000; stroke-opacity: 0.5"/>
    <path d="M 429.822129 210.768487 
L 429.822129 170.770783 
" clip-path="url(#p5641f10259)" style="fill: none; stroke: #000000; stroke-opacity: 0.5"/>
    <path d="M 504.522362 261.621946 
L 504.522362 233.525163 
" clip-path="url(#p5641f10259)" style="fill: none; stroke: #000000; stroke-opacity: 0.5"/>
    <path d="M 579.222595 267.225746 
L 579.222595 255.313602 
" clip-path="url(#p5641f10259)" style="fill: none; stroke: #000000; stroke-opacity: 0.5"/>
    <path d="M 653.922829 276.242887 
L 653.922829 273.045017 
" clip-path="url(#p5641f10259)" style="fill: none; stroke: #000000; stroke-opacity: 0.5"/>
    <path d="M 728.623062 254.78791 
L 728.623062 240.497764 
" clip-path="url(#p5641f10259)" style="fill: none; stroke: #000000; stroke-opacity: 0.5"/>
    <path d="M 803.323295 276.764785 
L 803.323295 274.553154 
" clip-path="url(#p5641f10259)" style="fill: none; stroke: #000000; stroke-opacity: 0.5"/>
   </g>
   <g id="line2d_25">
    <g clip-path="url(#p5641f10259)">
     <use xlink:href="#m1cf31ad1cd" x="131.021197" y="183.107847" style="fill-opacity: 0.5; stroke: #000000; stroke-opacity: 0.5"/>
     <use xlink:href="#m1cf31ad1cd" x="205.72143" y="170.190711" style="fill-opacity: 0.5; stroke: #000000; stroke-opacity: 0.5"/>
     <use xlink:href="#m1cf31ad1cd" x="280.421663" y="234.10364" style="fill-opacity: 0.5; stroke: #000000; stroke-opacity: 0.5"/>
     <use xlink:href="#m1cf31ad1cd" x="355.121896" y="224.758903" style="fill-opacity: 0.5; stroke: #000000; stroke-opacity: 0.5"/>
     <use xlink:href="#m1cf31ad1cd" x="429.822129" y="210.768487" style="fill-opacity: 0.5; stroke: #000000; stroke-opacity: 0.5"/>
     <use xlink:href="#m1cf31ad1cd" x="504.522362" y="261.621946" style="fill-opacity: 0.5; stroke: #000000; stroke-opacity: 0.5"/>
     <use xlink:href="#m1cf31ad1cd" x="579.222595" y="267.225746" style="fill-opacity: 0.5; stroke: #000000; stroke-opacity: 0.5"/>
     <use xlink:href="#m1cf31ad1cd" x="653.922829" y="276.242887" style="fill-opacity: 0.5; stroke: #000000; stroke-opacity: 0.5"/>
     <use xlink:href="#m1cf31ad1cd" x="728.623062" y="254.78791" style="fill-opacity: 0.5; stroke: #000000; stroke-opacity: 0.5"/>
     <use xlink:href="#m1cf31ad1cd" x="803.323295" y="276.764785" style="fill-opacity: 0.5; stroke: #000000; stroke-opacity: 0.5"/>
    </g>
   </g>
   <g id="line2d_26">
    <g clip-path="url(#p5641f10259)">
     <use xlink:href="#m1cf31ad1cd" x="131.021197" y="144.336123" style="fill-opacity: 0.5; stroke: #000000; stroke-opacity: 0.5"/>
     <use xlink:href="#m1cf31ad1cd" x="205.72143" y="116.33706" style="fill-opacity: 0.5; stroke: #000000; stroke-opacity: 0.5"/>
     <use xlink:href="#m1cf31ad1cd" x="280.421663" y="206.030297" style="fill-opacity: 0.5; stroke: #000000; stroke-opacity: 0.5"/>
     <use xlink:href="#m1cf31ad1cd" x="355.121896" y="175.442787" style="fill-opacity: 0.5; stroke: #000000; stroke-opacity: 0.5"/>
     <use xlink:href="#m1cf31ad1cd" x="429.822129" y="170.770783" style="fill-opacity: 0.5; stroke: #000000; stroke-opacity: 0.5"/>
     <use xlink:href="#m1cf31ad1cd" x="504.522362" y="233.525163" style="fill-opacity: 0.5; stroke: #000000; stroke-opacity: 0.5"/>
     <use xlink:href="#m1cf31ad1cd" x="579.222595" y="255.313602" style="fill-opacity: 0.5; stroke: #000000; stroke-opacity: 0.5"/>
     <use xlink:href="#m1cf31ad1cd" x="653.922829" y="273.045017" style="fill-opacity: 0.5; stroke: #000000; stroke-opacity: 0.5"/>
     <use xlink:href="#m1cf31ad1cd" x="728.623062" y="240.497764" style="fill-opacity: 0.5; stroke: #000000; stroke-opacity: 0.5"/>
     <use xlink:href="#m1cf31ad1cd" x="803.323295" y="274.553154" style="fill-opacity: 0.5; stroke: #000000; stroke-opacity: 0.5"/>
    </g>
   </g>
   <g id="patch_33">
    <path d="M 47.917188 276.933891 
L 47.917188 36.318125 
" style="fill: none; stroke: #000000; stroke-width: 0.8; stroke-linejoin: miter; stroke-linecap: square"/>
   </g>
   <g id="patch_34">
    <path d="M 849.077188 276.933891 
L 849.077188 36.318125 
" style="fill: none; stroke: #000000; stroke-width: 0.8; stroke-linejoin: miter; stroke-linecap: square"/>
   </g>
   <g id="patch_35">
    <path d="M 47.917188 276.933891 
L 849.077188 276.933891 
" style="fill: none; stroke: #000000; stroke-width: 0.8; stroke-linejoin: miter; stroke-linecap: square"/>
   </g>
   <g id="patch_36">
    <path d="M 47.917188 36.318125 
L 849.077188 36.318125 
" style="fill: none; stroke: #000000; stroke-width: 0.8; stroke-linejoin: miter; stroke-linecap: square"/>
   </g>
   <g id="text_18">
    <!-- Feature Importance Comparison - FRIED -->
    <g transform="translate(327.928125 16.318125) scale(0.12 -0.12)">
     <use xlink:href="#DejaVuSans-46"/>
     <use xlink:href="#DejaVuSans-65" transform="translate(52.019531 0)"/>
     <use xlink:href="#DejaVuSans-61" transform="translate(113.542969 0)"/>
     <use xlink:href="#DejaVuSans-74" transform="translate(174.822266 0)"/>
     <use xlink:href="#DejaVuSans-75" transform="translate(214.03125 0)"/>
     <use xlink:href="#DejaVuSans-72" transform="translate(277.410156 0)"/>
     <use xlink:href="#DejaVuSans-65" transform="translate(316.273438 0)"/>
     <use xlink:href="#DejaVuSans-20" transform="translate(377.796875 0)"/>
     <use xlink:href="#DejaVuSans-49" transform="translate(409.583984 0)"/>
     <use xlink:href="#DejaVuSans-6d" transform="translate(439.076172 0)"/>
     <use xlink:href="#DejaVuSans-70" transform="translate(536.488281 0)"/>
     <use xlink:href="#DejaVuSans-6f" transform="translate(599.964844 0)"/>
     <use xlink:href="#DejaVuSans-72" transform="translate(661.146484 0)"/>
     <use xlink:href="#DejaVuSans-74" transform="translate(702.259766 0)"/>
     <use xlink:href="#DejaVuSans-61" transform="translate(741.46875 0)"/>
     <use xlink:href="#DejaVuSans-6e" transform="translate(802.748047 0)"/>
     <use xlink:href="#DejaVuSans-63" transform="translate(866.126953 0)"/>
     <use xlink:href="#DejaVuSans-65" transform="translate(921.107422 0)"/>
     <use xlink:href="#DejaVuSans-20" transform="translate(982.630859 0)"/>
     <use xlink:href="#DejaVuSans-43" transform="translate(1014.417969 0)"/>
     <use xlink:href="#DejaVuSans-6f" transform="translate(1084.242188 0)"/>
     <use xlink:href="#DejaVuSans-6d" transform="translate(1145.423828 0)"/>
     <use xlink:href="#DejaVuSans-70" transform="translate(1242.835938 0)"/>
     <use xlink:href="#DejaVuSans-61" transform="translate(1306.3125 0)"/>
     <use xlink:href="#DejaVuSans-72" transform="translate(1367.591797 0)"/>
     <use xlink:href="#DejaVuSans-69" transform="translate(1408.705078 0)"/>
     <use xlink:href="#DejaVuSans-73" transform="translate(1436.488281 0)"/>
     <use xlink:href="#DejaVuSans-6f" transform="translate(1488.587891 0)"/>
     <use xlink:href="#DejaVuSans-6e" transform="translate(1549.769531 0)"/>
     <use xlink:href="#DejaVuSans-20" transform="translate(1613.148438 0)"/>
     <use xlink:href="#DejaVuSans-2d" transform="translate(1644.935547 0)"/>
     <use xlink:href="#DejaVuSans-20" transform="translate(1681.019531 0)"/>
     <use xlink:href="#DejaVuSans-46" transform="translate(1712.806641 0)"/>
     <use xlink:href="#DejaVuSans-52" transform="translate(1770.326172 0)"/>
     <use xlink:href="#DejaVuSans-49" transform="translate(1839.808594 0)"/>
     <use xlink:href="#DejaVuSans-45" transform="translate(1869.300781 0)"/>
     <use xlink:href="#DejaVuSans-44" transform="translate(1932.484375 0)"/>
    </g>
   </g>
   <g id="legend_1">
    <g id="patch_37">
     <path d="M 765.339219 83.149063 
L 842.777188 83.149063 
Q 844.577188 83.149063 844.577188 81.349063 
L 844.577188 42.618125 
Q 844.577188 40.818125 842.777188 40.818125 
L 765.339219 40.818125 
Q 763.539219 40.818125 763.539219 42.618125 
L 763.539219 81.349063 
Q 763.539219 83.149063 765.339219 83.149063 
z
" style="fill: #ffffff; opacity: 0.8; stroke: #cccccc; stroke-linejoin: miter"/>
    </g>
    <g id="patch_38">
     <path d="M 767.139219 51.256719 
L 785.139219 51.256719 
L 785.139219 44.956719 
L 767.139219 44.956719 
z
" style="fill: #2196f3; opacity: 0.8"/>
    </g>
    <g id="text_19">
     <!-- LIGHTGBM -->
     <g transform="translate(792.339219 51.256719) scale(0.09 -0.09)">
      <defs>
       <path id="DejaVuSans-47" d="M 3809 666 
L 3809 1919 
L 2778 1919 
L 2778 2438 
L 4434 2438 
L 4434 434 
Q 4069 175 3628 42 
Q 3188 -91 2688 -91 
Q 1594 -91 976 548 
Q 359 1188 359 2328 
Q 359 3472 976 4111 
Q 1594 4750 2688 4750 
Q 3144 4750 3555 4637 
Q 3966 4525 4313 4306 
L 4313 3634 
Q 3963 3931 3569 4081 
Q 3175 4231 2741 4231 
Q 1884 4231 1454 3753 
Q 1025 3275 1025 2328 
Q 1025 1384 1454 906 
Q 1884 428 2741 428 
Q 3075 428 3337 486 
Q 3600 544 3809 666 
z
" transform="scale(0.015625)"/>
      </defs>
      <use xlink:href="#DejaVuSans-4c"/>
      <use xlink:href="#DejaVuSans-49" transform="translate(55.712891 0)"/>
      <use xlink:href="#DejaVuSans-47" transform="translate(85.205078 0)"/>
      <use xlink:href="#DejaVuSans-48" transform="translate(162.695312 0)"/>
      <use xlink:href="#DejaVuSans-54" transform="translate(237.890625 0)"/>
      <use xlink:href="#DejaVuSans-47" transform="translate(298.974609 0)"/>
      <use xlink:href="#DejaVuSans-42" transform="translate(376.464844 0)"/>
      <use xlink:href="#DejaVuSans-4d" transform="translate(445.068359 0)"/>
     </g>
    </g>
    <g id="patch_39">
     <path d="M 767.139219 64.467031 
L 785.139219 64.467031 
L 785.139219 58.167031 
L 767.139219 58.167031 
z
" style="fill: #ffa726; opacity: 0.8"/>
    </g>
    <g id="text_20">
     <!-- XGBOOST -->
     <g transform="translate(792.339219 64.467031) scale(0.09 -0.09)">
      <use xlink:href="#DejaVuSans-58"/>
      <use xlink:href="#DejaVuSans-47" transform="translate(68.505859 0)"/>
      <use xlink:href="#DejaVuSans-42" transform="translate(145.996094 0)"/>
      <use xlink:href="#DejaVuSans-4f" transform="translate(212.849609 0)"/>
      <use xlink:href="#DejaVuSans-4f" transform="translate(291.560547 0)"/>
      <use xlink:href="#DejaVuSans-53" transform="translate(370.271484 0)"/>
      <use xlink:href="#DejaVuSans-54" transform="translate(433.748047 0)"/>
     </g>
    </g>
    <g id="patch_40">
     <path d="M 767.139219 77.677344 
L 785.139219 77.677344 
L 785.139219 71.377344 
L 767.139219 71.377344 
z
" style="fill: #66bb6a; opacity: 0.8"/>
    </g>
    <g id="text_21">
     <!-- CATBOOST -->
     <g transform="translate(792.339219 77.677344) scale(0.09 -0.09)">
      <use xlink:href="#DejaVuSans-43"/>
      <use xlink:href="#DejaVuSans-41" transform="translate(69.824219 0)"/>
      <use xlink:href="#DejaVuSans-54" transform="translate(130.482422 0)"/>
      <use xlink:href="#DejaVuSans-42" transform="translate(191.566406 0)"/>
      <use xlink:href="#DejaVuSans-4f" transform="translate(258.419922 0)"/>
      <use xlink:href="#DejaVuSans-4f" transform="translate(337.130859 0)"/>
      <use xlink:href="#DejaVuSans-53" transform="translate(415.841797 0)"/>
      <use xlink:href="#DejaVuSans-54" transform="translate(479.318359 0)"/>
     </g>
    </g>
   </g>
  </g>
 </g>
 <defs>
  <clipPath id="p5641f10259">
   <rect x="47.917188" y="36.318125" width="801.16" height="240.615766"/>
  </clipPath>
 </defs>
</svg>
