<?xml version="1.0" encoding="utf-8" standalone="no"?>
<!DOCTYPE svg PUBLIC "-//W3C//DTD SVG 1.1//EN"
  "http://www.w3.org/Graphics/SVG/1.1/DTD/svg11.dtd">
<svg xmlns:xlink="http://www.w3.org/1999/xlink" width="836.860831pt" height="422.734226pt" viewBox="0 0 836.860831 422.734226" xmlns="http://www.w3.org/2000/svg" version="1.1">
 <metadata>
  <rdf:RDF xmlns:dc="http://purl.org/dc/elements/1.1/" xmlns:cc="http://creativecommons.org/ns#" xmlns:rdf="http://www.w3.org/1999/02/22-rdf-syntax-ns#">
   <cc:Work>
    <dc:type rdf:resource="http://purl.org/dc/dcmitype/StillImage"/>
    <dc:date>2025-01-17T17:04:58.587592</dc:date>
    <dc:format>image/svg+xml</dc:format>
    <dc:creator>
     <cc:Agent>
      <dc:title>Matplotlib v3.10.0, https://matplotlib.org/</dc:title>
     </cc:Agent>
    </dc:creator>
   </cc:Work>
  </rdf:RDF>
 </metadata>
 <defs>
  <style type="text/css">*{stroke-linejoin: round; stroke-linecap: butt}</style>
 </defs>
 <g id="figure_1">
  <g id="patch_1">
   <path d="M 0 422.734226 
L 836.860831 422.734226 
L 836.860831 -0 
L 0 -0 
z
" style="fill: #ffffff"/>
  </g>
  <g id="axes_1">
   <g id="patch_2">
    <path d="M 49.932898 168.364716 
L 829.660831 168.364716 
L 829.660831 36.318125 
L 49.932898 36.318125 
z
" style="fill: #ffffff"/>
   </g>
   <g id="patch_3">
    <path d="M 85.375076 168.364716 
L 103.550553 168.364716 
L 103.550553 53.520839 
L 85.375076 53.520839 
z
" clip-path="url(#p5517ae9932)" style="fill: #2196f3; opacity: 0.8"/>
   </g>
   <g id="patch_4">
    <path d="M 158.076982 168.364716 
L 176.252458 168.364716 
L 176.252458 91.48044 
L 158.076982 91.48044 
z
" clip-path="url(#p5517ae9932)" style="fill: #2196f3; opacity: 0.8"/>
   </g>
   <g id="patch_5">
    <path d="M 230.778887 168.364716 
L 248.954363 168.364716 
L 248.954363 106.921633 
L 230.778887 106.921633 
z
" clip-path="url(#p5517ae9932)" style="fill: #2196f3; opacity: 0.8"/>
   </g>
   <g id="patch_6">
    <path d="M 303.480792 168.364716 
L 321.656268 168.364716 
L 321.656268 144.237851 
L 303.480792 144.237851 
z
" clip-path="url(#p5517ae9932)" style="fill: #2196f3; opacity: 0.8"/>
   </g>
   <g id="patch_7">
    <path d="M 376.182697 168.364716 
L 394.358174 168.364716 
L 394.358174 95.019047 
L 376.182697 95.019047 
z
" clip-path="url(#p5517ae9932)" style="fill: #2196f3; opacity: 0.8"/>
   </g>
   <g id="patch_8">
    <path d="M 448.884602 168.364716 
L 467.060079 168.364716 
L 467.060079 157.105513 
L 448.884602 157.105513 
z
" clip-path="url(#p5517ae9932)" style="fill: #2196f3; opacity: 0.8"/>
   </g>
   <g id="patch_9">
    <path d="M 521.586508 168.364716 
L 539.761984 168.364716 
L 539.761984 143.91616 
L 521.586508 143.91616 
z
" clip-path="url(#p5517ae9932)" style="fill: #2196f3; opacity: 0.8"/>
   </g>
   <g id="patch_10">
    <path d="M 594.288413 168.364716 
L 612.463889 168.364716 
L 612.463889 141.664319 
L 594.288413 141.664319 
z
" clip-path="url(#p5517ae9932)" style="fill: #2196f3; opacity: 0.8"/>
   </g>
   <g id="patch_11">
    <path d="M 666.990318 168.364716 
L 685.165794 168.364716 
L 685.165794 132.978648 
L 666.990318 132.978648 
z
" clip-path="url(#p5517ae9932)" style="fill: #2196f3; opacity: 0.8"/>
   </g>
   <g id="patch_12">
    <path d="M 739.692223 168.364716 
L 757.8677 168.364716 
L 757.8677 143.594468 
L 739.692223 143.594468 
z
" clip-path="url(#p5517ae9932)" style="fill: #2196f3; opacity: 0.8"/>
   </g>
   <g id="patch_13">
    <path d="M 103.550553 168.364716 
L 121.726029 168.364716 
L 121.726029 154.827466 
L 103.550553 154.827466 
z
" clip-path="url(#p5517ae9932)" style="fill: #ffa726; opacity: 0.8"/>
   </g>
   <g id="patch_14">
    <path d="M 176.252458 168.364716 
L 194.427934 168.364716 
L 194.427934 136.693777 
L 176.252458 136.693777 
z
" clip-path="url(#p5517ae9932)" style="fill: #ffa726; opacity: 0.8"/>
   </g>
   <g id="patch_15">
    <path d="M 248.954363 168.364716 
L 267.129839 168.364716 
L 267.129839 125.431427 
L 248.954363 125.431427 
z
" clip-path="url(#p5517ae9932)" style="fill: #ffa726; opacity: 0.8"/>
   </g>
   <g id="patch_16">
    <path d="M 321.656268 168.364716 
L 339.831745 168.364716 
L 339.831745 161.998266 
L 321.656268 161.998266 
z
" clip-path="url(#p5517ae9932)" style="fill: #ffa726; opacity: 0.8"/>
   </g>
   <g id="patch_17">
    <path d="M 394.358174 168.364716 
L 412.53365 168.364716 
L 412.53365 147.706625 
L 394.358174 147.706625 
z
" clip-path="url(#p5517ae9932)" style="fill: #ffa726; opacity: 0.8"/>
   </g>
   <g id="patch_18">
    <path d="M 467.060079 168.364716 
L 485.235555 168.364716 
L 485.235555 145.09598 
L 467.060079 145.09598 
z
" clip-path="url(#p5517ae9932)" style="fill: #ffa726; opacity: 0.8"/>
   </g>
   <g id="patch_19">
    <path d="M 539.761984 168.364716 
L 557.93746 168.364716 
L 557.93746 148.680763 
L 539.761984 148.680763 
z
" clip-path="url(#p5517ae9932)" style="fill: #ffa726; opacity: 0.8"/>
   </g>
   <g id="patch_20">
    <path d="M 612.463889 168.364716 
L 630.639365 168.364716 
L 630.639365 153.324095 
L 612.463889 153.324095 
z
" clip-path="url(#p5517ae9932)" style="fill: #ffa726; opacity: 0.8"/>
   </g>
   <g id="patch_21">
    <path d="M 685.165794 168.364716 
L 703.341271 168.364716 
L 703.341271 164.339222 
L 685.165794 164.339222 
z
" clip-path="url(#p5517ae9932)" style="fill: #ffa726; opacity: 0.8"/>
   </g>
   <g id="patch_22">
    <path d="M 757.8677 168.364716 
L 776.043176 168.364716 
L 776.043176 159.242426 
L 757.8677 159.242426 
z
" clip-path="url(#p5517ae9932)" style="fill: #ffa726; opacity: 0.8"/>
   </g>
   <g id="patch_23">
    <path d="M 121.726029 168.364716 
L 139.901505 168.364716 
L 139.901505 120.522615 
L 121.726029 120.522615 
z
" clip-path="url(#p5517ae9932)" style="fill: #66bb6a; opacity: 0.8"/>
   </g>
   <g id="patch_24">
    <path d="M 194.427934 168.364716 
L 212.60341 168.364716 
L 212.60341 101.22517 
L 194.427934 101.22517 
z
" clip-path="url(#p5517ae9932)" style="fill: #66bb6a; opacity: 0.8"/>
   </g>
   <g id="patch_25">
    <path d="M 267.129839 168.364716 
L 285.305316 168.364716 
L 285.305316 118.048656 
L 267.129839 118.048656 
z
" clip-path="url(#p5517ae9932)" style="fill: #66bb6a; opacity: 0.8"/>
   </g>
   <g id="patch_26">
    <path d="M 339.831745 168.364716 
L 358.007221 168.364716 
L 358.007221 100.643599 
L 339.831745 100.643599 
z
" clip-path="url(#p5517ae9932)" style="fill: #66bb6a; opacity: 0.8"/>
   </g>
   <g id="patch_27">
    <path d="M 412.53365 168.364716 
L 430.709126 168.364716 
L 430.709126 167.035216 
L 412.53365 167.035216 
z
" clip-path="url(#p5517ae9932)" style="fill: #66bb6a; opacity: 0.8"/>
   </g>
   <g id="patch_28">
    <path d="M 485.235555 168.364716 
L 503.411031 168.364716 
L 503.411031 139.139709 
L 485.235555 139.139709 
z
" clip-path="url(#p5517ae9932)" style="fill: #66bb6a; opacity: 0.8"/>
   </g>
   <g id="patch_29">
    <path d="M 557.93746 168.364716 
L 576.112937 168.364716 
L 576.112937 152.963698 
L 557.93746 152.963698 
z
" clip-path="url(#p5517ae9932)" style="fill: #66bb6a; opacity: 0.8"/>
   </g>
   <g id="patch_30">
    <path d="M 630.639365 168.364716 
L 648.814842 168.364716 
L 648.814842 152.493972 
L 630.639365 152.493972 
z
" clip-path="url(#p5517ae9932)" style="fill: #66bb6a; opacity: 0.8"/>
   </g>
   <g id="patch_31">
    <path d="M 703.341271 168.364716 
L 721.516747 168.364716 
L 721.516747 152.761822 
L 703.341271 152.761822 
z
" clip-path="url(#p5517ae9932)" style="fill: #66bb6a; opacity: 0.8"/>
   </g>
   <g id="patch_32">
    <path d="M 776.043176 168.364716 
L 794.218652 168.364716 
L 794.218652 148.053129 
L 776.043176 148.053129 
z
" clip-path="url(#p5517ae9932)" style="fill: #66bb6a; opacity: 0.8"/>
   </g>
   <g id="matplotlib.axis_1">
    <g id="xtick_1">
     <g id="line2d_1">
      <defs>
       <path id="mcf90053147" d="M 0 0 
L 0 3.5 
" style="stroke: #000000; stroke-width: 0.8"/>
      </defs>
      <g>
       <use xlink:href="#mcf90053147" x="112.638291" y="168.364716" style="stroke: #000000; stroke-width: 0.8"/>
      </g>
     </g>
     <g id="text_1">
      <!-- Variation du poids -->
      <g transform="translate(53.904897 237.610221) rotate(-45) scale(0.09 -0.09)">
       <defs>
        <path id="DejaVuSans-56" d="M 1831 0 
L 50 4666 
L 709 4666 
L 2188 738 
L 3669 4666 
L 4325 4666 
L 2547 0 
L 1831 0 
z
" transform="scale(0.015625)"/>
        <path id="DejaVuSans-61" d="M 2194 1759 
Q 1497 1759 1228 1600 
Q 959 1441 959 1056 
Q 959 750 1161 570 
Q 1363 391 1709 391 
Q 2188 391 2477 730 
Q 2766 1069 2766 1631 
L 2766 1759 
L 2194 1759 
z
M 3341 1997 
L 3341 0 
L 2766 0 
L 2766 531 
Q 2569 213 2275 61 
Q 1981 -91 1556 -91 
Q 1019 -91 701 211 
Q 384 513 384 1019 
Q 384 1609 779 1909 
Q 1175 2209 1959 2209 
L 2766 2209 
L 2766 2266 
Q 2766 2663 2505 2880 
Q 2244 3097 1772 3097 
Q 1472 3097 1187 3025 
Q 903 2953 641 2809 
L 641 3341 
Q 956 3463 1253 3523 
Q 1550 3584 1831 3584 
Q 2591 3584 2966 3190 
Q 3341 2797 3341 1997 
z
" transform="scale(0.015625)"/>
        <path id="DejaVuSans-72" d="M 2631 2963 
Q 2534 3019 2420 3045 
Q 2306 3072 2169 3072 
Q 1681 3072 1420 2755 
Q 1159 2438 1159 1844 
L 1159 0 
L 581 0 
L 581 3500 
L 1159 3500 
L 1159 2956 
Q 1341 3275 1631 3429 
Q 1922 3584 2338 3584 
Q 2397 3584 2469 3576 
Q 2541 3569 2628 3553 
L 2631 2963 
z
" transform="scale(0.015625)"/>
        <path id="DejaVuSans-69" d="M 603 3500 
L 1178 3500 
L 1178 0 
L 603 0 
L 603 3500 
z
M 603 4863 
L 1178 4863 
L 1178 4134 
L 603 4134 
L 603 4863 
z
" transform="scale(0.015625)"/>
        <path id="DejaVuSans-74" d="M 1172 4494 
L 1172 3500 
L 2356 3500 
L 2356 3053 
L 1172 3053 
L 1172 1153 
Q 1172 725 1289 603 
Q 1406 481 1766 481 
L 2356 481 
L 2356 0 
L 1766 0 
Q 1100 0 847 248 
Q 594 497 594 1153 
L 594 3053 
L 172 3053 
L 172 3500 
L 594 3500 
L 594 4494 
L 1172 4494 
z
" transform="scale(0.015625)"/>
        <path id="DejaVuSans-6f" d="M 1959 3097 
Q 1497 3097 1228 2736 
Q 959 2375 959 1747 
Q 959 1119 1226 758 
Q 1494 397 1959 397 
Q 2419 397 2687 759 
Q 2956 1122 2956 1747 
Q 2956 2369 2687 2733 
Q 2419 3097 1959 3097 
z
M 1959 3584 
Q 2709 3584 3137 3096 
Q 3566 2609 3566 1747 
Q 3566 888 3137 398 
Q 2709 -91 1959 -91 
Q 1206 -91 779 398 
Q 353 888 353 1747 
Q 353 2609 779 3096 
Q 1206 3584 1959 3584 
z
" transform="scale(0.015625)"/>
        <path id="DejaVuSans-6e" d="M 3513 2113 
L 3513 0 
L 2938 0 
L 2938 2094 
Q 2938 2591 2744 2837 
Q 2550 3084 2163 3084 
Q 1697 3084 1428 2787 
Q 1159 2491 1159 1978 
L 1159 0 
L 581 0 
L 581 3500 
L 1159 3500 
L 1159 2956 
Q 1366 3272 1645 3428 
Q 1925 3584 2291 3584 
Q 2894 3584 3203 3211 
Q 3513 2838 3513 2113 
z
" transform="scale(0.015625)"/>
        <path id="DejaVuSans-20" transform="scale(0.015625)"/>
        <path id="DejaVuSans-64" d="M 2906 2969 
L 2906 4863 
L 3481 4863 
L 3481 0 
L 2906 0 
L 2906 525 
Q 2725 213 2448 61 
Q 2172 -91 1784 -91 
Q 1150 -91 751 415 
Q 353 922 353 1747 
Q 353 2572 751 3078 
Q 1150 3584 1784 3584 
Q 2172 3584 2448 3432 
Q 2725 3281 2906 2969 
z
M 947 1747 
Q 947 1113 1208 752 
Q 1469 391 1925 391 
Q 2381 391 2643 752 
Q 2906 1113 2906 1747 
Q 2906 2381 2643 2742 
Q 2381 3103 1925 3103 
Q 1469 3103 1208 2742 
Q 947 2381 947 1747 
z
" transform="scale(0.015625)"/>
        <path id="DejaVuSans-75" d="M 544 1381 
L 544 3500 
L 1119 3500 
L 1119 1403 
Q 1119 906 1312 657 
Q 1506 409 1894 409 
Q 2359 409 2629 706 
Q 2900 1003 2900 1516 
L 2900 3500 
L 3475 3500 
L 3475 0 
L 2900 0 
L 2900 538 
Q 2691 219 2414 64 
Q 2138 -91 1772 -91 
Q 1169 -91 856 284 
Q 544 659 544 1381 
z
M 1991 3584 
L 1991 3584 
z
" transform="scale(0.015625)"/>
        <path id="DejaVuSans-70" d="M 1159 525 
L 1159 -1331 
L 581 -1331 
L 581 3500 
L 1159 3500 
L 1159 2969 
Q 1341 3281 1617 3432 
Q 1894 3584 2278 3584 
Q 2916 3584 3314 3078 
Q 3713 2572 3713 1747 
Q 3713 922 3314 415 
Q 2916 -91 2278 -91 
Q 1894 -91 1617 61 
Q 1341 213 1159 525 
z
M 3116 1747 
Q 3116 2381 2855 2742 
Q 2594 3103 2138 3103 
Q 1681 3103 1420 2742 
Q 1159 2381 1159 1747 
Q 1159 1113 1420 752 
Q 1681 391 2138 391 
Q 2594 391 2855 752 
Q 3116 1113 3116 1747 
z
" transform="scale(0.015625)"/>
        <path id="DejaVuSans-73" d="M 2834 3397 
L 2834 2853 
Q 2591 2978 2328 3040 
Q 2066 3103 1784 3103 
Q 1356 3103 1142 2972 
Q 928 2841 928 2578 
Q 928 2378 1081 2264 
Q 1234 2150 1697 2047 
L 1894 2003 
Q 2506 1872 2764 1633 
Q 3022 1394 3022 966 
Q 3022 478 2636 193 
Q 2250 -91 1575 -91 
Q 1294 -91 989 -36 
Q 684 19 347 128 
L 347 722 
Q 666 556 975 473 
Q 1284 391 1588 391 
Q 1994 391 2212 530 
Q 2431 669 2431 922 
Q 2431 1156 2273 1281 
Q 2116 1406 1581 1522 
L 1381 1569 
Q 847 1681 609 1914 
Q 372 2147 372 2553 
Q 372 3047 722 3315 
Q 1072 3584 1716 3584 
Q 2034 3584 2315 3537 
Q 2597 3491 2834 3397 
z
" transform="scale(0.015625)"/>
       </defs>
       <use xlink:href="#DejaVuSans-56"/>
       <use xlink:href="#DejaVuSans-61" transform="translate(60.658203 0)"/>
       <use xlink:href="#DejaVuSans-72" transform="translate(121.9375 0)"/>
       <use xlink:href="#DejaVuSans-69" transform="translate(163.050781 0)"/>
       <use xlink:href="#DejaVuSans-61" transform="translate(190.833984 0)"/>
       <use xlink:href="#DejaVuSans-74" transform="translate(252.113281 0)"/>
       <use xlink:href="#DejaVuSans-69" transform="translate(291.322266 0)"/>
       <use xlink:href="#DejaVuSans-6f" transform="translate(319.105469 0)"/>
       <use xlink:href="#DejaVuSans-6e" transform="translate(380.287109 0)"/>
       <use xlink:href="#DejaVuSans-20" transform="translate(443.666016 0)"/>
       <use xlink:href="#DejaVuSans-64" transform="translate(475.453125 0)"/>
       <use xlink:href="#DejaVuSans-75" transform="translate(538.929688 0)"/>
       <use xlink:href="#DejaVuSans-20" transform="translate(602.308594 0)"/>
       <use xlink:href="#DejaVuSans-70" transform="translate(634.095703 0)"/>
       <use xlink:href="#DejaVuSans-6f" transform="translate(697.572266 0)"/>
       <use xlink:href="#DejaVuSans-69" transform="translate(758.753906 0)"/>
       <use xlink:href="#DejaVuSans-64" transform="translate(786.537109 0)"/>
       <use xlink:href="#DejaVuSans-73" transform="translate(850.013672 0)"/>
      </g>
     </g>
    </g>
    <g id="xtick_2">
     <g id="line2d_2">
      <g>
       <use xlink:href="#mcf90053147" x="185.340196" y="168.364716" style="stroke: #000000; stroke-width: 0.8"/>
      </g>
     </g>
     <g id="text_2">
      <!-- SCORE FROP COM HORS AMTS SCORE FROPCOM0011 -->
      <g transform="translate(12.035616 352.181407) rotate(-45) scale(0.09 -0.09)">
       <defs>
        <path id="DejaVuSans-53" d="M 3425 4513 
L 3425 3897 
Q 3066 4069 2747 4153 
Q 2428 4238 2131 4238 
Q 1616 4238 1336 4038 
Q 1056 3838 1056 3469 
Q 1056 3159 1242 3001 
Q 1428 2844 1947 2747 
L 2328 2669 
Q 3034 2534 3370 2195 
Q 3706 1856 3706 1288 
Q 3706 609 3251 259 
Q 2797 -91 1919 -91 
Q 1588 -91 1214 -16 
Q 841 59 441 206 
L 441 856 
Q 825 641 1194 531 
Q 1563 422 1919 422 
Q 2459 422 2753 634 
Q 3047 847 3047 1241 
Q 3047 1584 2836 1778 
Q 2625 1972 2144 2069 
L 1759 2144 
Q 1053 2284 737 2584 
Q 422 2884 422 3419 
Q 422 4038 858 4394 
Q 1294 4750 2059 4750 
Q 2388 4750 2728 4690 
Q 3069 4631 3425 4513 
z
" transform="scale(0.015625)"/>
        <path id="DejaVuSans-43" d="M 4122 4306 
L 4122 3641 
Q 3803 3938 3442 4084 
Q 3081 4231 2675 4231 
Q 1875 4231 1450 3742 
Q 1025 3253 1025 2328 
Q 1025 1406 1450 917 
Q 1875 428 2675 428 
Q 3081 428 3442 575 
Q 3803 722 4122 1019 
L 4122 359 
Q 3791 134 3420 21 
Q 3050 -91 2638 -91 
Q 1578 -91 968 557 
Q 359 1206 359 2328 
Q 359 3453 968 4101 
Q 1578 4750 2638 4750 
Q 3056 4750 3426 4639 
Q 3797 4528 4122 4306 
z
" transform="scale(0.015625)"/>
        <path id="DejaVuSans-4f" d="M 2522 4238 
Q 1834 4238 1429 3725 
Q 1025 3213 1025 2328 
Q 1025 1447 1429 934 
Q 1834 422 2522 422 
Q 3209 422 3611 934 
Q 4013 1447 4013 2328 
Q 4013 3213 3611 3725 
Q 3209 4238 2522 4238 
z
M 2522 4750 
Q 3503 4750 4090 4092 
Q 4678 3434 4678 2328 
Q 4678 1225 4090 567 
Q 3503 -91 2522 -91 
Q 1538 -91 948 565 
Q 359 1222 359 2328 
Q 359 3434 948 4092 
Q 1538 4750 2522 4750 
z
" transform="scale(0.015625)"/>
        <path id="DejaVuSans-52" d="M 2841 2188 
Q 3044 2119 3236 1894 
Q 3428 1669 3622 1275 
L 4263 0 
L 3584 0 
L 2988 1197 
Q 2756 1666 2539 1819 
Q 2322 1972 1947 1972 
L 1259 1972 
L 1259 0 
L 628 0 
L 628 4666 
L 2053 4666 
Q 2853 4666 3247 4331 
Q 3641 3997 3641 3322 
Q 3641 2881 3436 2590 
Q 3231 2300 2841 2188 
z
M 1259 4147 
L 1259 2491 
L 2053 2491 
Q 2509 2491 2742 2702 
Q 2975 2913 2975 3322 
Q 2975 3731 2742 3939 
Q 2509 4147 2053 4147 
L 1259 4147 
z
" transform="scale(0.015625)"/>
        <path id="DejaVuSans-45" d="M 628 4666 
L 3578 4666 
L 3578 4134 
L 1259 4134 
L 1259 2753 
L 3481 2753 
L 3481 2222 
L 1259 2222 
L 1259 531 
L 3634 531 
L 3634 0 
L 628 0 
L 628 4666 
z
" transform="scale(0.015625)"/>
        <path id="DejaVuSans-46" d="M 628 4666 
L 3309 4666 
L 3309 4134 
L 1259 4134 
L 1259 2759 
L 3109 2759 
L 3109 2228 
L 1259 2228 
L 1259 0 
L 628 0 
L 628 4666 
z
" transform="scale(0.015625)"/>
        <path id="DejaVuSans-50" d="M 1259 4147 
L 1259 2394 
L 2053 2394 
Q 2494 2394 2734 2622 
Q 2975 2850 2975 3272 
Q 2975 3691 2734 3919 
Q 2494 4147 2053 4147 
L 1259 4147 
z
M 628 4666 
L 2053 4666 
Q 2838 4666 3239 4311 
Q 3641 3956 3641 3272 
Q 3641 2581 3239 2228 
Q 2838 1875 2053 1875 
L 1259 1875 
L 1259 0 
L 628 0 
L 628 4666 
z
" transform="scale(0.015625)"/>
        <path id="DejaVuSans-4d" d="M 628 4666 
L 1569 4666 
L 2759 1491 
L 3956 4666 
L 4897 4666 
L 4897 0 
L 4281 0 
L 4281 4097 
L 3078 897 
L 2444 897 
L 1241 4097 
L 1241 0 
L 628 0 
L 628 4666 
z
" transform="scale(0.015625)"/>
        <path id="DejaVuSans-48" d="M 628 4666 
L 1259 4666 
L 1259 2753 
L 3553 2753 
L 3553 4666 
L 4184 4666 
L 4184 0 
L 3553 0 
L 3553 2222 
L 1259 2222 
L 1259 0 
L 628 0 
L 628 4666 
z
" transform="scale(0.015625)"/>
        <path id="DejaVuSans-41" d="M 2188 4044 
L 1331 1722 
L 3047 1722 
L 2188 4044 
z
M 1831 4666 
L 2547 4666 
L 4325 0 
L 3669 0 
L 3244 1197 
L 1141 1197 
L 716 0 
L 50 0 
L 1831 4666 
z
" transform="scale(0.015625)"/>
        <path id="DejaVuSans-54" d="M -19 4666 
L 3928 4666 
L 3928 4134 
L 2272 4134 
L 2272 0 
L 1638 0 
L 1638 4134 
L -19 4134 
L -19 4666 
z
" transform="scale(0.015625)"/>
        <path id="DejaVuSans-30" d="M 2034 4250 
Q 1547 4250 1301 3770 
Q 1056 3291 1056 2328 
Q 1056 1369 1301 889 
Q 1547 409 2034 409 
Q 2525 409 2770 889 
Q 3016 1369 3016 2328 
Q 3016 3291 2770 3770 
Q 2525 4250 2034 4250 
z
M 2034 4750 
Q 2819 4750 3233 4129 
Q 3647 3509 3647 2328 
Q 3647 1150 3233 529 
Q 2819 -91 2034 -91 
Q 1250 -91 836 529 
Q 422 1150 422 2328 
Q 422 3509 836 4129 
Q 1250 4750 2034 4750 
z
" transform="scale(0.015625)"/>
        <path id="DejaVuSans-31" d="M 794 531 
L 1825 531 
L 1825 4091 
L 703 3866 
L 703 4441 
L 1819 4666 
L 2450 4666 
L 2450 531 
L 3481 531 
L 3481 0 
L 794 0 
L 794 531 
z
" transform="scale(0.015625)"/>
       </defs>
       <use xlink:href="#DejaVuSans-53"/>
       <use xlink:href="#DejaVuSans-43" transform="translate(63.476562 0)"/>
       <use xlink:href="#DejaVuSans-4f" transform="translate(133.300781 0)"/>
       <use xlink:href="#DejaVuSans-52" transform="translate(212.011719 0)"/>
       <use xlink:href="#DejaVuSans-45" transform="translate(281.494141 0)"/>
       <use xlink:href="#DejaVuSans-20" transform="translate(344.677734 0)"/>
       <use xlink:href="#DejaVuSans-46" transform="translate(376.464844 0)"/>
       <use xlink:href="#DejaVuSans-52" transform="translate(433.984375 0)"/>
       <use xlink:href="#DejaVuSans-4f" transform="translate(503.466797 0)"/>
       <use xlink:href="#DejaVuSans-50" transform="translate(582.177734 0)"/>
       <use xlink:href="#DejaVuSans-20" transform="translate(642.480469 0)"/>
       <use xlink:href="#DejaVuSans-43" transform="translate(674.267578 0)"/>
       <use xlink:href="#DejaVuSans-4f" transform="translate(744.091797 0)"/>
       <use xlink:href="#DejaVuSans-4d" transform="translate(822.802734 0)"/>
       <use xlink:href="#DejaVuSans-20" transform="translate(909.082031 0)"/>
       <use xlink:href="#DejaVuSans-48" transform="translate(940.869141 0)"/>
       <use xlink:href="#DejaVuSans-4f" transform="translate(1016.064453 0)"/>
       <use xlink:href="#DejaVuSans-52" transform="translate(1094.775391 0)"/>
       <use xlink:href="#DejaVuSans-53" transform="translate(1164.257812 0)"/>
       <use xlink:href="#DejaVuSans-20" transform="translate(1227.734375 0)"/>
       <use xlink:href="#DejaVuSans-41" transform="translate(1259.521484 0)"/>
       <use xlink:href="#DejaVuSans-4d" transform="translate(1327.929688 0)"/>
       <use xlink:href="#DejaVuSans-54" transform="translate(1414.208984 0)"/>
       <use xlink:href="#DejaVuSans-53" transform="translate(1475.292969 0)"/>
       <use xlink:href="#DejaVuSans-20" transform="translate(1538.769531 0)"/>
       <use xlink:href="#DejaVuSans-53" transform="translate(1570.556641 0)"/>
       <use xlink:href="#DejaVuSans-43" transform="translate(1634.033203 0)"/>
       <use xlink:href="#DejaVuSans-4f" transform="translate(1703.857422 0)"/>
       <use xlink:href="#DejaVuSans-52" transform="translate(1782.568359 0)"/>
       <use xlink:href="#DejaVuSans-45" transform="translate(1852.050781 0)"/>
       <use xlink:href="#DejaVuSans-20" transform="translate(1915.234375 0)"/>
       <use xlink:href="#DejaVuSans-46" transform="translate(1947.021484 0)"/>
       <use xlink:href="#DejaVuSans-52" transform="translate(2004.541016 0)"/>
       <use xlink:href="#DejaVuSans-4f" transform="translate(2074.023438 0)"/>
       <use xlink:href="#DejaVuSans-50" transform="translate(2152.734375 0)"/>
       <use xlink:href="#DejaVuSans-43" transform="translate(2213.037109 0)"/>
       <use xlink:href="#DejaVuSans-4f" transform="translate(2282.861328 0)"/>
       <use xlink:href="#DejaVuSans-4d" transform="translate(2361.572266 0)"/>
       <use xlink:href="#DejaVuSans-30" transform="translate(2447.851562 0)"/>
       <use xlink:href="#DejaVuSans-30" transform="translate(2511.474609 0)"/>
       <use xlink:href="#DejaVuSans-31" transform="translate(2575.097656 0)"/>
       <use xlink:href="#DejaVuSans-31" transform="translate(2638.720703 0)"/>
      </g>
     </g>
    </g>
    <g id="xtick_3">
     <g id="line2d_3">
      <g>
       <use xlink:href="#mcf90053147" x="258.042101" y="168.364716" style="stroke: #000000; stroke-width: 0.8"/>
      </g>
     </g>
     <g id="text_3">
      <!-- long_time_diffusion_Diffusion_ML_YF_baseline -->
      <g transform="translate(110.57222 326.169711) rotate(-45) scale(0.09 -0.09)">
       <defs>
        <path id="DejaVuSans-6c" d="M 603 4863 
L 1178 4863 
L 1178 0 
L 603 0 
L 603 4863 
z
" transform="scale(0.015625)"/>
        <path id="DejaVuSans-67" d="M 2906 1791 
Q 2906 2416 2648 2759 
Q 2391 3103 1925 3103 
Q 1463 3103 1205 2759 
Q 947 2416 947 1791 
Q 947 1169 1205 825 
Q 1463 481 1925 481 
Q 2391 481 2648 825 
Q 2906 1169 2906 1791 
z
M 3481 434 
Q 3481 -459 3084 -895 
Q 2688 -1331 1869 -1331 
Q 1566 -1331 1297 -1286 
Q 1028 -1241 775 -1147 
L 775 -588 
Q 1028 -725 1275 -790 
Q 1522 -856 1778 -856 
Q 2344 -856 2625 -561 
Q 2906 -266 2906 331 
L 2906 616 
Q 2728 306 2450 153 
Q 2172 0 1784 0 
Q 1141 0 747 490 
Q 353 981 353 1791 
Q 353 2603 747 3093 
Q 1141 3584 1784 3584 
Q 2172 3584 2450 3431 
Q 2728 3278 2906 2969 
L 2906 3500 
L 3481 3500 
L 3481 434 
z
" transform="scale(0.015625)"/>
        <path id="DejaVuSans-5f" d="M 3263 -1063 
L 3263 -1509 
L -63 -1509 
L -63 -1063 
L 3263 -1063 
z
" transform="scale(0.015625)"/>
        <path id="DejaVuSans-6d" d="M 3328 2828 
Q 3544 3216 3844 3400 
Q 4144 3584 4550 3584 
Q 5097 3584 5394 3201 
Q 5691 2819 5691 2113 
L 5691 0 
L 5113 0 
L 5113 2094 
Q 5113 2597 4934 2840 
Q 4756 3084 4391 3084 
Q 3944 3084 3684 2787 
Q 3425 2491 3425 1978 
L 3425 0 
L 2847 0 
L 2847 2094 
Q 2847 2600 2669 2842 
Q 2491 3084 2119 3084 
Q 1678 3084 1418 2786 
Q 1159 2488 1159 1978 
L 1159 0 
L 581 0 
L 581 3500 
L 1159 3500 
L 1159 2956 
Q 1356 3278 1631 3431 
Q 1906 3584 2284 3584 
Q 2666 3584 2933 3390 
Q 3200 3197 3328 2828 
z
" transform="scale(0.015625)"/>
        <path id="DejaVuSans-65" d="M 3597 1894 
L 3597 1613 
L 953 1613 
Q 991 1019 1311 708 
Q 1631 397 2203 397 
Q 2534 397 2845 478 
Q 3156 559 3463 722 
L 3463 178 
Q 3153 47 2828 -22 
Q 2503 -91 2169 -91 
Q 1331 -91 842 396 
Q 353 884 353 1716 
Q 353 2575 817 3079 
Q 1281 3584 2069 3584 
Q 2775 3584 3186 3129 
Q 3597 2675 3597 1894 
z
M 3022 2063 
Q 3016 2534 2758 2815 
Q 2500 3097 2075 3097 
Q 1594 3097 1305 2825 
Q 1016 2553 972 2059 
L 3022 2063 
z
" transform="scale(0.015625)"/>
        <path id="DejaVuSans-66" d="M 2375 4863 
L 2375 4384 
L 1825 4384 
Q 1516 4384 1395 4259 
Q 1275 4134 1275 3809 
L 1275 3500 
L 2222 3500 
L 2222 3053 
L 1275 3053 
L 1275 0 
L 697 0 
L 697 3053 
L 147 3053 
L 147 3500 
L 697 3500 
L 697 3744 
Q 697 4328 969 4595 
Q 1241 4863 1831 4863 
L 2375 4863 
z
" transform="scale(0.015625)"/>
        <path id="DejaVuSans-44" d="M 1259 4147 
L 1259 519 
L 2022 519 
Q 2988 519 3436 956 
Q 3884 1394 3884 2338 
Q 3884 3275 3436 3711 
Q 2988 4147 2022 4147 
L 1259 4147 
z
M 628 4666 
L 1925 4666 
Q 3281 4666 3915 4102 
Q 4550 3538 4550 2338 
Q 4550 1131 3912 565 
Q 3275 0 1925 0 
L 628 0 
L 628 4666 
z
" transform="scale(0.015625)"/>
        <path id="DejaVuSans-4c" d="M 628 4666 
L 1259 4666 
L 1259 531 
L 3531 531 
L 3531 0 
L 628 0 
L 628 4666 
z
" transform="scale(0.015625)"/>
        <path id="DejaVuSans-59" d="M -13 4666 
L 666 4666 
L 1959 2747 
L 3244 4666 
L 3922 4666 
L 2272 2222 
L 2272 0 
L 1638 0 
L 1638 2222 
L -13 4666 
z
" transform="scale(0.015625)"/>
        <path id="DejaVuSans-62" d="M 3116 1747 
Q 3116 2381 2855 2742 
Q 2594 3103 2138 3103 
Q 1681 3103 1420 2742 
Q 1159 2381 1159 1747 
Q 1159 1113 1420 752 
Q 1681 391 2138 391 
Q 2594 391 2855 752 
Q 3116 1113 3116 1747 
z
M 1159 2969 
Q 1341 3281 1617 3432 
Q 1894 3584 2278 3584 
Q 2916 3584 3314 3078 
Q 3713 2572 3713 1747 
Q 3713 922 3314 415 
Q 2916 -91 2278 -91 
Q 1894 -91 1617 61 
Q 1341 213 1159 525 
L 1159 0 
L 581 0 
L 581 4863 
L 1159 4863 
L 1159 2969 
z
" transform="scale(0.015625)"/>
       </defs>
       <use xlink:href="#DejaVuSans-6c"/>
       <use xlink:href="#DejaVuSans-6f" transform="translate(27.783203 0)"/>
       <use xlink:href="#DejaVuSans-6e" transform="translate(88.964844 0)"/>
       <use xlink:href="#DejaVuSans-67" transform="translate(152.34375 0)"/>
       <use xlink:href="#DejaVuSans-5f" transform="translate(215.820312 0)"/>
       <use xlink:href="#DejaVuSans-74" transform="translate(265.820312 0)"/>
       <use xlink:href="#DejaVuSans-69" transform="translate(305.029297 0)"/>
       <use xlink:href="#DejaVuSans-6d" transform="translate(332.8125 0)"/>
       <use xlink:href="#DejaVuSans-65" transform="translate(430.224609 0)"/>
       <use xlink:href="#DejaVuSans-5f" transform="translate(491.748047 0)"/>
       <use xlink:href="#DejaVuSans-64" transform="translate(541.748047 0)"/>
       <use xlink:href="#DejaVuSans-69" transform="translate(605.224609 0)"/>
       <use xlink:href="#DejaVuSans-66" transform="translate(633.007812 0)"/>
       <use xlink:href="#DejaVuSans-66" transform="translate(668.212891 0)"/>
       <use xlink:href="#DejaVuSans-75" transform="translate(703.417969 0)"/>
       <use xlink:href="#DejaVuSans-73" transform="translate(766.796875 0)"/>
       <use xlink:href="#DejaVuSans-69" transform="translate(818.896484 0)"/>
       <use xlink:href="#DejaVuSans-6f" transform="translate(846.679688 0)"/>
       <use xlink:href="#DejaVuSans-6e" transform="translate(907.861328 0)"/>
       <use xlink:href="#DejaVuSans-5f" transform="translate(971.240234 0)"/>
       <use xlink:href="#DejaVuSans-44" transform="translate(1021.240234 0)"/>
       <use xlink:href="#DejaVuSans-69" transform="translate(1098.242188 0)"/>
       <use xlink:href="#DejaVuSans-66" transform="translate(1126.025391 0)"/>
       <use xlink:href="#DejaVuSans-66" transform="translate(1161.230469 0)"/>
       <use xlink:href="#DejaVuSans-75" transform="translate(1196.435547 0)"/>
       <use xlink:href="#DejaVuSans-73" transform="translate(1259.814453 0)"/>
       <use xlink:href="#DejaVuSans-69" transform="translate(1311.914062 0)"/>
       <use xlink:href="#DejaVuSans-6f" transform="translate(1339.697266 0)"/>
       <use xlink:href="#DejaVuSans-6e" transform="translate(1400.878906 0)"/>
       <use xlink:href="#DejaVuSans-5f" transform="translate(1464.257812 0)"/>
       <use xlink:href="#DejaVuSans-4d" transform="translate(1514.257812 0)"/>
       <use xlink:href="#DejaVuSans-4c" transform="translate(1600.537109 0)"/>
       <use xlink:href="#DejaVuSans-5f" transform="translate(1656.25 0)"/>
       <use xlink:href="#DejaVuSans-59" transform="translate(1706.25 0)"/>
       <use xlink:href="#DejaVuSans-46" transform="translate(1767.333984 0)"/>
       <use xlink:href="#DejaVuSans-5f" transform="translate(1824.853516 0)"/>
       <use xlink:href="#DejaVuSans-62" transform="translate(1874.853516 0)"/>
       <use xlink:href="#DejaVuSans-61" transform="translate(1938.330078 0)"/>
       <use xlink:href="#DejaVuSans-73" transform="translate(1999.609375 0)"/>
       <use xlink:href="#DejaVuSans-65" transform="translate(2051.708984 0)"/>
       <use xlink:href="#DejaVuSans-6c" transform="translate(2113.232422 0)"/>
       <use xlink:href="#DejaVuSans-69" transform="translate(2141.015625 0)"/>
       <use xlink:href="#DejaVuSans-6e" transform="translate(2168.798828 0)"/>
       <use xlink:href="#DejaVuSans-65" transform="translate(2232.177734 0)"/>
      </g>
     </g>
    </g>
    <g id="xtick_4">
     <g id="line2d_4">
      <g>
       <use xlink:href="#mcf90053147" x="330.744006" y="168.364716" style="stroke: #000000; stroke-width: 0.8"/>
      </g>
     </g>
     <g id="text_4">
      <!-- Age a l inclusion -->
      <g transform="translate(277.263863 232.35697) rotate(-45) scale(0.09 -0.09)">
       <defs>
        <path id="DejaVuSans-63" d="M 3122 3366 
L 3122 2828 
Q 2878 2963 2633 3030 
Q 2388 3097 2138 3097 
Q 1578 3097 1268 2742 
Q 959 2388 959 1747 
Q 959 1106 1268 751 
Q 1578 397 2138 397 
Q 2388 397 2633 464 
Q 2878 531 3122 666 
L 3122 134 
Q 2881 22 2623 -34 
Q 2366 -91 2075 -91 
Q 1284 -91 818 406 
Q 353 903 353 1747 
Q 353 2603 823 3093 
Q 1294 3584 2113 3584 
Q 2378 3584 2631 3529 
Q 2884 3475 3122 3366 
z
" transform="scale(0.015625)"/>
       </defs>
       <use xlink:href="#DejaVuSans-41"/>
       <use xlink:href="#DejaVuSans-67" transform="translate(68.408203 0)"/>
       <use xlink:href="#DejaVuSans-65" transform="translate(131.884766 0)"/>
       <use xlink:href="#DejaVuSans-20" transform="translate(193.408203 0)"/>
       <use xlink:href="#DejaVuSans-61" transform="translate(225.195312 0)"/>
       <use xlink:href="#DejaVuSans-20" transform="translate(286.474609 0)"/>
       <use xlink:href="#DejaVuSans-6c" transform="translate(318.261719 0)"/>
       <use xlink:href="#DejaVuSans-20" transform="translate(346.044922 0)"/>
       <use xlink:href="#DejaVuSans-69" transform="translate(377.832031 0)"/>
       <use xlink:href="#DejaVuSans-6e" transform="translate(405.615234 0)"/>
       <use xlink:href="#DejaVuSans-63" transform="translate(468.994141 0)"/>
       <use xlink:href="#DejaVuSans-6c" transform="translate(523.974609 0)"/>
       <use xlink:href="#DejaVuSans-75" transform="translate(551.757812 0)"/>
       <use xlink:href="#DejaVuSans-73" transform="translate(615.136719 0)"/>
       <use xlink:href="#DejaVuSans-69" transform="translate(667.236328 0)"/>
       <use xlink:href="#DejaVuSans-6f" transform="translate(695.019531 0)"/>
       <use xlink:href="#DejaVuSans-6e" transform="translate(756.201172 0)"/>
      </g>
     </g>
    </g>
    <g id="xtick_5">
     <g id="line2d_5">
      <g>
       <use xlink:href="#mcf90053147" x="403.445912" y="168.364716" style="stroke: #000000; stroke-width: 0.8"/>
      </g>
     </g>
     <g id="text_5">
      <!-- FROPCOM0023 -->
      <g transform="translate(354.052625 228.270114) rotate(-45) scale(0.09 -0.09)">
       <defs>
        <path id="DejaVuSans-32" d="M 1228 531 
L 3431 531 
L 3431 0 
L 469 0 
L 469 531 
Q 828 903 1448 1529 
Q 2069 2156 2228 2338 
Q 2531 2678 2651 2914 
Q 2772 3150 2772 3378 
Q 2772 3750 2511 3984 
Q 2250 4219 1831 4219 
Q 1534 4219 1204 4116 
Q 875 4013 500 3803 
L 500 4441 
Q 881 4594 1212 4672 
Q 1544 4750 1819 4750 
Q 2544 4750 2975 4387 
Q 3406 4025 3406 3419 
Q 3406 3131 3298 2873 
Q 3191 2616 2906 2266 
Q 2828 2175 2409 1742 
Q 1991 1309 1228 531 
z
" transform="scale(0.015625)"/>
        <path id="DejaVuSans-33" d="M 2597 2516 
Q 3050 2419 3304 2112 
Q 3559 1806 3559 1356 
Q 3559 666 3084 287 
Q 2609 -91 1734 -91 
Q 1441 -91 1130 -33 
Q 819 25 488 141 
L 488 750 
Q 750 597 1062 519 
Q 1375 441 1716 441 
Q 2309 441 2620 675 
Q 2931 909 2931 1356 
Q 2931 1769 2642 2001 
Q 2353 2234 1838 2234 
L 1294 2234 
L 1294 2753 
L 1863 2753 
Q 2328 2753 2575 2939 
Q 2822 3125 2822 3475 
Q 2822 3834 2567 4026 
Q 2313 4219 1838 4219 
Q 1578 4219 1281 4162 
Q 984 4106 628 3988 
L 628 4550 
Q 988 4650 1302 4700 
Q 1616 4750 1894 4750 
Q 2613 4750 3031 4423 
Q 3450 4097 3450 3541 
Q 3450 3153 3228 2886 
Q 3006 2619 2597 2516 
z
" transform="scale(0.015625)"/>
       </defs>
       <use xlink:href="#DejaVuSans-46"/>
       <use xlink:href="#DejaVuSans-52" transform="translate(57.519531 0)"/>
       <use xlink:href="#DejaVuSans-4f" transform="translate(127.001953 0)"/>
       <use xlink:href="#DejaVuSans-50" transform="translate(205.712891 0)"/>
       <use xlink:href="#DejaVuSans-43" transform="translate(266.015625 0)"/>
       <use xlink:href="#DejaVuSans-4f" transform="translate(335.839844 0)"/>
       <use xlink:href="#DejaVuSans-4d" transform="translate(414.550781 0)"/>
       <use xlink:href="#DejaVuSans-30" transform="translate(500.830078 0)"/>
       <use xlink:href="#DejaVuSans-30" transform="translate(564.453125 0)"/>
       <use xlink:href="#DejaVuSans-32" transform="translate(628.076172 0)"/>
       <use xlink:href="#DejaVuSans-33" transform="translate(691.699219 0)"/>
      </g>
     </g>
    </g>
    <g id="xtick_6">
     <g id="line2d_6">
      <g>
       <use xlink:href="#mcf90053147" x="476.147817" y="168.364716" style="stroke: #000000; stroke-width: 0.8"/>
      </g>
     </g>
     <g id="text_6">
      <!-- SCORE FROP COM AVEC AMTS_MMSE_sur_3_SCORE TOTAL FROPCOM -->
      <g transform="translate(254.379685 400.355598) rotate(-45) scale(0.09 -0.09)">
       <use xlink:href="#DejaVuSans-53"/>
       <use xlink:href="#DejaVuSans-43" transform="translate(63.476562 0)"/>
       <use xlink:href="#DejaVuSans-4f" transform="translate(133.300781 0)"/>
       <use xlink:href="#DejaVuSans-52" transform="translate(212.011719 0)"/>
       <use xlink:href="#DejaVuSans-45" transform="translate(281.494141 0)"/>
       <use xlink:href="#DejaVuSans-20" transform="translate(344.677734 0)"/>
       <use xlink:href="#DejaVuSans-46" transform="translate(376.464844 0)"/>
       <use xlink:href="#DejaVuSans-52" transform="translate(433.984375 0)"/>
       <use xlink:href="#DejaVuSans-4f" transform="translate(503.466797 0)"/>
       <use xlink:href="#DejaVuSans-50" transform="translate(582.177734 0)"/>
       <use xlink:href="#DejaVuSans-20" transform="translate(642.480469 0)"/>
       <use xlink:href="#DejaVuSans-43" transform="translate(674.267578 0)"/>
       <use xlink:href="#DejaVuSans-4f" transform="translate(744.091797 0)"/>
       <use xlink:href="#DejaVuSans-4d" transform="translate(822.802734 0)"/>
       <use xlink:href="#DejaVuSans-20" transform="translate(909.082031 0)"/>
       <use xlink:href="#DejaVuSans-41" transform="translate(940.869141 0)"/>
       <use xlink:href="#DejaVuSans-56" transform="translate(1002.902344 0)"/>
       <use xlink:href="#DejaVuSans-45" transform="translate(1071.310547 0)"/>
       <use xlink:href="#DejaVuSans-43" transform="translate(1134.494141 0)"/>
       <use xlink:href="#DejaVuSans-20" transform="translate(1204.318359 0)"/>
       <use xlink:href="#DejaVuSans-41" transform="translate(1236.105469 0)"/>
       <use xlink:href="#DejaVuSans-4d" transform="translate(1304.513672 0)"/>
       <use xlink:href="#DejaVuSans-54" transform="translate(1390.792969 0)"/>
       <use xlink:href="#DejaVuSans-53" transform="translate(1451.876953 0)"/>
       <use xlink:href="#DejaVuSans-5f" transform="translate(1515.353516 0)"/>
       <use xlink:href="#DejaVuSans-4d" transform="translate(1565.353516 0)"/>
       <use xlink:href="#DejaVuSans-4d" transform="translate(1651.632812 0)"/>
       <use xlink:href="#DejaVuSans-53" transform="translate(1737.912109 0)"/>
       <use xlink:href="#DejaVuSans-45" transform="translate(1801.388672 0)"/>
       <use xlink:href="#DejaVuSans-5f" transform="translate(1864.572266 0)"/>
       <use xlink:href="#DejaVuSans-73" transform="translate(1914.572266 0)"/>
       <use xlink:href="#DejaVuSans-75" transform="translate(1966.671875 0)"/>
       <use xlink:href="#DejaVuSans-72" transform="translate(2030.050781 0)"/>
       <use xlink:href="#DejaVuSans-5f" transform="translate(2071.164062 0)"/>
       <use xlink:href="#DejaVuSans-33" transform="translate(2121.164062 0)"/>
       <use xlink:href="#DejaVuSans-5f" transform="translate(2184.787109 0)"/>
       <use xlink:href="#DejaVuSans-53" transform="translate(2234.787109 0)"/>
       <use xlink:href="#DejaVuSans-43" transform="translate(2298.263672 0)"/>
       <use xlink:href="#DejaVuSans-4f" transform="translate(2368.087891 0)"/>
       <use xlink:href="#DejaVuSans-52" transform="translate(2446.798828 0)"/>
       <use xlink:href="#DejaVuSans-45" transform="translate(2516.28125 0)"/>
       <use xlink:href="#DejaVuSans-20" transform="translate(2579.464844 0)"/>
       <use xlink:href="#DejaVuSans-54" transform="translate(2611.251953 0)"/>
       <use xlink:href="#DejaVuSans-4f" transform="translate(2672.335938 0)"/>
       <use xlink:href="#DejaVuSans-54" transform="translate(2751.046875 0)"/>
       <use xlink:href="#DejaVuSans-41" transform="translate(2804.380859 0)"/>
       <use xlink:href="#DejaVuSans-4c" transform="translate(2872.789062 0)"/>
       <use xlink:href="#DejaVuSans-20" transform="translate(2928.501953 0)"/>
       <use xlink:href="#DejaVuSans-46" transform="translate(2960.289062 0)"/>
       <use xlink:href="#DejaVuSans-52" transform="translate(3017.808594 0)"/>
       <use xlink:href="#DejaVuSans-4f" transform="translate(3087.291016 0)"/>
       <use xlink:href="#DejaVuSans-50" transform="translate(3166.001953 0)"/>
       <use xlink:href="#DejaVuSans-43" transform="translate(3226.304688 0)"/>
       <use xlink:href="#DejaVuSans-4f" transform="translate(3296.128906 0)"/>
       <use xlink:href="#DejaVuSans-4d" transform="translate(3374.839844 0)"/>
      </g>
     </g>
    </g>
    <g id="xtick_7">
     <g id="line2d_7">
      <g>
       <use xlink:href="#mcf90053147" x="548.849722" y="168.364716" style="stroke: #000000; stroke-width: 0.8"/>
      </g>
     </g>
     <g id="text_7">
      <!-- total_power_Power_Spectrum_Density_ML_YF_baseline -->
      <g transform="translate(373.343609 354.205942) rotate(-45) scale(0.09 -0.09)">
       <defs>
        <path id="DejaVuSans-77" d="M 269 3500 
L 844 3500 
L 1563 769 
L 2278 3500 
L 2956 3500 
L 3675 769 
L 4391 3500 
L 4966 3500 
L 4050 0 
L 3372 0 
L 2619 2869 
L 1863 0 
L 1184 0 
L 269 3500 
z
" transform="scale(0.015625)"/>
        <path id="DejaVuSans-79" d="M 2059 -325 
Q 1816 -950 1584 -1140 
Q 1353 -1331 966 -1331 
L 506 -1331 
L 506 -850 
L 844 -850 
Q 1081 -850 1212 -737 
Q 1344 -625 1503 -206 
L 1606 56 
L 191 3500 
L 800 3500 
L 1894 763 
L 2988 3500 
L 3597 3500 
L 2059 -325 
z
" transform="scale(0.015625)"/>
       </defs>
       <use xlink:href="#DejaVuSans-74"/>
       <use xlink:href="#DejaVuSans-6f" transform="translate(39.208984 0)"/>
       <use xlink:href="#DejaVuSans-74" transform="translate(100.390625 0)"/>
       <use xlink:href="#DejaVuSans-61" transform="translate(139.599609 0)"/>
       <use xlink:href="#DejaVuSans-6c" transform="translate(200.878906 0)"/>
       <use xlink:href="#DejaVuSans-5f" transform="translate(228.662109 0)"/>
       <use xlink:href="#DejaVuSans-70" transform="translate(278.662109 0)"/>
       <use xlink:href="#DejaVuSans-6f" transform="translate(342.138672 0)"/>
       <use xlink:href="#DejaVuSans-77" transform="translate(403.320312 0)"/>
       <use xlink:href="#DejaVuSans-65" transform="translate(485.107422 0)"/>
       <use xlink:href="#DejaVuSans-72" transform="translate(546.630859 0)"/>
       <use xlink:href="#DejaVuSans-5f" transform="translate(587.744141 0)"/>
       <use xlink:href="#DejaVuSans-50" transform="translate(637.744141 0)"/>
       <use xlink:href="#DejaVuSans-6f" transform="translate(694.421875 0)"/>
       <use xlink:href="#DejaVuSans-77" transform="translate(755.603516 0)"/>
       <use xlink:href="#DejaVuSans-65" transform="translate(837.390625 0)"/>
       <use xlink:href="#DejaVuSans-72" transform="translate(898.914062 0)"/>
       <use xlink:href="#DejaVuSans-5f" transform="translate(940.027344 0)"/>
       <use xlink:href="#DejaVuSans-53" transform="translate(990.027344 0)"/>
       <use xlink:href="#DejaVuSans-70" transform="translate(1053.503906 0)"/>
       <use xlink:href="#DejaVuSans-65" transform="translate(1116.980469 0)"/>
       <use xlink:href="#DejaVuSans-63" transform="translate(1178.503906 0)"/>
       <use xlink:href="#DejaVuSans-74" transform="translate(1233.484375 0)"/>
       <use xlink:href="#DejaVuSans-72" transform="translate(1272.693359 0)"/>
       <use xlink:href="#DejaVuSans-75" transform="translate(1313.806641 0)"/>
       <use xlink:href="#DejaVuSans-6d" transform="translate(1377.185547 0)"/>
       <use xlink:href="#DejaVuSans-5f" transform="translate(1474.597656 0)"/>
       <use xlink:href="#DejaVuSans-44" transform="translate(1524.597656 0)"/>
       <use xlink:href="#DejaVuSans-65" transform="translate(1601.599609 0)"/>
       <use xlink:href="#DejaVuSans-6e" transform="translate(1663.123047 0)"/>
       <use xlink:href="#DejaVuSans-73" transform="translate(1726.501953 0)"/>
       <use xlink:href="#DejaVuSans-69" transform="translate(1778.601562 0)"/>
       <use xlink:href="#DejaVuSans-74" transform="translate(1806.384766 0)"/>
       <use xlink:href="#DejaVuSans-79" transform="translate(1845.59375 0)"/>
       <use xlink:href="#DejaVuSans-5f" transform="translate(1904.773438 0)"/>
       <use xlink:href="#DejaVuSans-4d" transform="translate(1954.773438 0)"/>
       <use xlink:href="#DejaVuSans-4c" transform="translate(2041.052734 0)"/>
       <use xlink:href="#DejaVuSans-5f" transform="translate(2096.765625 0)"/>
       <use xlink:href="#DejaVuSans-59" transform="translate(2146.765625 0)"/>
       <use xlink:href="#DejaVuSans-46" transform="translate(2207.849609 0)"/>
       <use xlink:href="#DejaVuSans-5f" transform="translate(2265.369141 0)"/>
       <use xlink:href="#DejaVuSans-62" transform="translate(2315.369141 0)"/>
       <use xlink:href="#DejaVuSans-61" transform="translate(2378.845703 0)"/>
       <use xlink:href="#DejaVuSans-73" transform="translate(2440.125 0)"/>
       <use xlink:href="#DejaVuSans-65" transform="translate(2492.224609 0)"/>
       <use xlink:href="#DejaVuSans-6c" transform="translate(2553.748047 0)"/>
       <use xlink:href="#DejaVuSans-69" transform="translate(2581.53125 0)"/>
       <use xlink:href="#DejaVuSans-6e" transform="translate(2609.314453 0)"/>
       <use xlink:href="#DejaVuSans-65" transform="translate(2672.693359 0)"/>
      </g>
     </g>
    </g>
    <g id="xtick_8">
     <g id="line2d_8">
      <g>
       <use xlink:href="#mcf90053147" x="621.551627" y="168.364716" style="stroke: #000000; stroke-width: 0.8"/>
      </g>
     </g>
     <g id="text_8">
      <!-- FROPCOM0027 -->
      <g transform="translate(572.15834 228.270114) rotate(-45) scale(0.09 -0.09)">
       <defs>
        <path id="DejaVuSans-37" d="M 525 4666 
L 3525 4666 
L 3525 4397 
L 1831 0 
L 1172 0 
L 2766 4134 
L 525 4134 
L 525 4666 
z
" transform="scale(0.015625)"/>
       </defs>
       <use xlink:href="#DejaVuSans-46"/>
       <use xlink:href="#DejaVuSans-52" transform="translate(57.519531 0)"/>
       <use xlink:href="#DejaVuSans-4f" transform="translate(127.001953 0)"/>
       <use xlink:href="#DejaVuSans-50" transform="translate(205.712891 0)"/>
       <use xlink:href="#DejaVuSans-43" transform="translate(266.015625 0)"/>
       <use xlink:href="#DejaVuSans-4f" transform="translate(335.839844 0)"/>
       <use xlink:href="#DejaVuSans-4d" transform="translate(414.550781 0)"/>
       <use xlink:href="#DejaVuSans-30" transform="translate(500.830078 0)"/>
       <use xlink:href="#DejaVuSans-30" transform="translate(564.453125 0)"/>
       <use xlink:href="#DejaVuSans-32" transform="translate(628.076172 0)"/>
       <use xlink:href="#DejaVuSans-37" transform="translate(691.699219 0)"/>
      </g>
     </g>
    </g>
    <g id="xtick_9">
     <g id="line2d_9">
      <g>
       <use xlink:href="#mcf90053147" x="694.253532" y="168.364716" style="stroke: #000000; stroke-width: 0.8"/>
      </g>
     </g>
     <g id="text_9">
      <!-- SPPB06 -->
      <g transform="translate(668.750953 204.379407) rotate(-45) scale(0.09 -0.09)">
       <defs>
        <path id="DejaVuSans-42" d="M 1259 2228 
L 1259 519 
L 2272 519 
Q 2781 519 3026 730 
Q 3272 941 3272 1375 
Q 3272 1813 3026 2020 
Q 2781 2228 2272 2228 
L 1259 2228 
z
M 1259 4147 
L 1259 2741 
L 2194 2741 
Q 2656 2741 2882 2914 
Q 3109 3088 3109 3444 
Q 3109 3797 2882 3972 
Q 2656 4147 2194 4147 
L 1259 4147 
z
M 628 4666 
L 2241 4666 
Q 2963 4666 3353 4366 
Q 3744 4066 3744 3513 
Q 3744 3084 3544 2831 
Q 3344 2578 2956 2516 
Q 3422 2416 3680 2098 
Q 3938 1781 3938 1306 
Q 3938 681 3513 340 
Q 3088 0 2303 0 
L 628 0 
L 628 4666 
z
" transform="scale(0.015625)"/>
        <path id="DejaVuSans-36" d="M 2113 2584 
Q 1688 2584 1439 2293 
Q 1191 2003 1191 1497 
Q 1191 994 1439 701 
Q 1688 409 2113 409 
Q 2538 409 2786 701 
Q 3034 994 3034 1497 
Q 3034 2003 2786 2293 
Q 2538 2584 2113 2584 
z
M 3366 4563 
L 3366 3988 
Q 3128 4100 2886 4159 
Q 2644 4219 2406 4219 
Q 1781 4219 1451 3797 
Q 1122 3375 1075 2522 
Q 1259 2794 1537 2939 
Q 1816 3084 2150 3084 
Q 2853 3084 3261 2657 
Q 3669 2231 3669 1497 
Q 3669 778 3244 343 
Q 2819 -91 2113 -91 
Q 1303 -91 875 529 
Q 447 1150 447 2328 
Q 447 3434 972 4092 
Q 1497 4750 2381 4750 
Q 2619 4750 2861 4703 
Q 3103 4656 3366 4563 
z
" transform="scale(0.015625)"/>
       </defs>
       <use xlink:href="#DejaVuSans-53"/>
       <use xlink:href="#DejaVuSans-50" transform="translate(63.476562 0)"/>
       <use xlink:href="#DejaVuSans-50" transform="translate(123.779297 0)"/>
       <use xlink:href="#DejaVuSans-42" transform="translate(184.082031 0)"/>
       <use xlink:href="#DejaVuSans-30" transform="translate(252.685547 0)"/>
       <use xlink:href="#DejaVuSans-36" transform="translate(316.308594 0)"/>
      </g>
     </g>
    </g>
    <g id="xtick_10">
     <g id="line2d_10">
      <g>
       <use xlink:href="#mcf90053147" x="766.955438" y="168.364716" style="stroke: #000000; stroke-width: 0.8"/>
      </g>
     </g>
     <g id="text_10">
      <!-- SPPB_06_07_Variation_Vitesse_Relative -->
      <g transform="translate(640.433926 305.221341) rotate(-45) scale(0.09 -0.09)">
       <defs>
        <path id="DejaVuSans-76" d="M 191 3500 
L 800 3500 
L 1894 563 
L 2988 3500 
L 3597 3500 
L 2284 0 
L 1503 0 
L 191 3500 
z
" transform="scale(0.015625)"/>
       </defs>
       <use xlink:href="#DejaVuSans-53"/>
       <use xlink:href="#DejaVuSans-50" transform="translate(63.476562 0)"/>
       <use xlink:href="#DejaVuSans-50" transform="translate(123.779297 0)"/>
       <use xlink:href="#DejaVuSans-42" transform="translate(184.082031 0)"/>
       <use xlink:href="#DejaVuSans-5f" transform="translate(252.685547 0)"/>
       <use xlink:href="#DejaVuSans-30" transform="translate(302.685547 0)"/>
       <use xlink:href="#DejaVuSans-36" transform="translate(366.308594 0)"/>
       <use xlink:href="#DejaVuSans-5f" transform="translate(429.931641 0)"/>
       <use xlink:href="#DejaVuSans-30" transform="translate(479.931641 0)"/>
       <use xlink:href="#DejaVuSans-37" transform="translate(543.554688 0)"/>
       <use xlink:href="#DejaVuSans-5f" transform="translate(607.177734 0)"/>
       <use xlink:href="#DejaVuSans-56" transform="translate(657.177734 0)"/>
       <use xlink:href="#DejaVuSans-61" transform="translate(717.835938 0)"/>
       <use xlink:href="#DejaVuSans-72" transform="translate(779.115234 0)"/>
       <use xlink:href="#DejaVuSans-69" transform="translate(820.228516 0)"/>
       <use xlink:href="#DejaVuSans-61" transform="translate(848.011719 0)"/>
       <use xlink:href="#DejaVuSans-74" transform="translate(909.291016 0)"/>
       <use xlink:href="#DejaVuSans-69" transform="translate(948.5 0)"/>
       <use xlink:href="#DejaVuSans-6f" transform="translate(976.283203 0)"/>
       <use xlink:href="#DejaVuSans-6e" transform="translate(1037.464844 0)"/>
       <use xlink:href="#DejaVuSans-5f" transform="translate(1100.84375 0)"/>
       <use xlink:href="#DejaVuSans-56" transform="translate(1150.84375 0)"/>
       <use xlink:href="#DejaVuSans-69" transform="translate(1217.001953 0)"/>
       <use xlink:href="#DejaVuSans-74" transform="translate(1244.785156 0)"/>
       <use xlink:href="#DejaVuSans-65" transform="translate(1283.994141 0)"/>
       <use xlink:href="#DejaVuSans-73" transform="translate(1345.517578 0)"/>
       <use xlink:href="#DejaVuSans-73" transform="translate(1397.617188 0)"/>
       <use xlink:href="#DejaVuSans-65" transform="translate(1449.716797 0)"/>
       <use xlink:href="#DejaVuSans-5f" transform="translate(1511.240234 0)"/>
       <use xlink:href="#DejaVuSans-52" transform="translate(1561.240234 0)"/>
       <use xlink:href="#DejaVuSans-65" transform="translate(1626.222656 0)"/>
       <use xlink:href="#DejaVuSans-6c" transform="translate(1687.746094 0)"/>
       <use xlink:href="#DejaVuSans-61" transform="translate(1715.529297 0)"/>
       <use xlink:href="#DejaVuSans-74" transform="translate(1776.808594 0)"/>
       <use xlink:href="#DejaVuSans-69" transform="translate(1816.017578 0)"/>
       <use xlink:href="#DejaVuSans-76" transform="translate(1843.800781 0)"/>
       <use xlink:href="#DejaVuSans-65" transform="translate(1902.980469 0)"/>
      </g>
     </g>
    </g>
    <g id="text_11">
     <!-- Features -->
     <g transform="translate(418.302333 413.454538) scale(0.1 -0.1)">
      <use xlink:href="#DejaVuSans-46"/>
      <use xlink:href="#DejaVuSans-65" transform="translate(52.019531 0)"/>
      <use xlink:href="#DejaVuSans-61" transform="translate(113.542969 0)"/>
      <use xlink:href="#DejaVuSans-74" transform="translate(174.822266 0)"/>
      <use xlink:href="#DejaVuSans-75" transform="translate(214.03125 0)"/>
      <use xlink:href="#DejaVuSans-72" transform="translate(277.410156 0)"/>
      <use xlink:href="#DejaVuSans-65" transform="translate(316.273438 0)"/>
      <use xlink:href="#DejaVuSans-73" transform="translate(377.796875 0)"/>
     </g>
    </g>
   </g>
   <g id="matplotlib.axis_2">
    <g id="ytick_1">
     <g id="line2d_11">
      <path d="M 49.932898 168.364716 
L 829.660831 168.364716 
" clip-path="url(#p5517ae9932)" style="fill: none; stroke-dasharray: 2.96,1.28; stroke-dashoffset: 0; stroke: #b0b0b0; stroke-opacity: 0.3; stroke-width: 0.8"/>
     </g>
     <g id="line2d_12">
      <defs>
       <path id="m0e5f1c3dc9" d="M 0 0 
L -3.5 0 
" style="stroke: #000000; stroke-width: 0.8"/>
      </defs>
      <g>
       <use xlink:href="#m0e5f1c3dc9" x="49.932898" y="168.364716" style="stroke: #000000; stroke-width: 0.8"/>
      </g>
     </g>
     <g id="text_12">
      <!-- 0.00 -->
      <g transform="translate(22.893835 171.784013) scale(0.09 -0.09)">
       <defs>
        <path id="DejaVuSans-2e" d="M 684 794 
L 1344 794 
L 1344 0 
L 684 0 
L 684 794 
z
" transform="scale(0.015625)"/>
       </defs>
       <use xlink:href="#DejaVuSans-30"/>
       <use xlink:href="#DejaVuSans-2e" transform="translate(63.623047 0)"/>
       <use xlink:href="#DejaVuSans-30" transform="translate(95.410156 0)"/>
       <use xlink:href="#DejaVuSans-30" transform="translate(159.033203 0)"/>
      </g>
     </g>
    </g>
    <g id="ytick_2">
     <g id="line2d_13">
      <path d="M 49.932898 142.783805 
L 829.660831 142.783805 
" clip-path="url(#p5517ae9932)" style="fill: none; stroke-dasharray: 2.96,1.28; stroke-dashoffset: 0; stroke: #b0b0b0; stroke-opacity: 0.3; stroke-width: 0.8"/>
     </g>
     <g id="line2d_14">
      <g>
       <use xlink:href="#m0e5f1c3dc9" x="49.932898" y="142.783805" style="stroke: #000000; stroke-width: 0.8"/>
      </g>
     </g>
     <g id="text_13">
      <!-- 0.02 -->
      <g transform="translate(22.893835 146.203102) scale(0.09 -0.09)">
       <use xlink:href="#DejaVuSans-30"/>
       <use xlink:href="#DejaVuSans-2e" transform="translate(63.623047 0)"/>
       <use xlink:href="#DejaVuSans-30" transform="translate(95.410156 0)"/>
       <use xlink:href="#DejaVuSans-32" transform="translate(159.033203 0)"/>
      </g>
     </g>
    </g>
    <g id="ytick_3">
     <g id="line2d_15">
      <path d="M 49.932898 117.202895 
L 829.660831 117.202895 
" clip-path="url(#p5517ae9932)" style="fill: none; stroke-dasharray: 2.96,1.28; stroke-dashoffset: 0; stroke: #b0b0b0; stroke-opacity: 0.3; stroke-width: 0.8"/>
     </g>
     <g id="line2d_16">
      <g>
       <use xlink:href="#m0e5f1c3dc9" x="49.932898" y="117.202895" style="stroke: #000000; stroke-width: 0.8"/>
      </g>
     </g>
     <g id="text_14">
      <!-- 0.04 -->
      <g transform="translate(22.893835 120.622192) scale(0.09 -0.09)">
       <defs>
        <path id="DejaVuSans-34" d="M 2419 4116 
L 825 1625 
L 2419 1625 
L 2419 4116 
z
M 2253 4666 
L 3047 4666 
L 3047 1625 
L 3713 1625 
L 3713 1100 
L 3047 1100 
L 3047 0 
L 2419 0 
L 2419 1100 
L 313 1100 
L 313 1709 
L 2253 4666 
z
" transform="scale(0.015625)"/>
       </defs>
       <use xlink:href="#DejaVuSans-30"/>
       <use xlink:href="#DejaVuSans-2e" transform="translate(63.623047 0)"/>
       <use xlink:href="#DejaVuSans-30" transform="translate(95.410156 0)"/>
       <use xlink:href="#DejaVuSans-34" transform="translate(159.033203 0)"/>
      </g>
     </g>
    </g>
    <g id="ytick_4">
     <g id="line2d_17">
      <path d="M 49.932898 91.621984 
L 829.660831 91.621984 
" clip-path="url(#p5517ae9932)" style="fill: none; stroke-dasharray: 2.96,1.28; stroke-dashoffset: 0; stroke: #b0b0b0; stroke-opacity: 0.3; stroke-width: 0.8"/>
     </g>
     <g id="line2d_18">
      <g>
       <use xlink:href="#m0e5f1c3dc9" x="49.932898" y="91.621984" style="stroke: #000000; stroke-width: 0.8"/>
      </g>
     </g>
     <g id="text_15">
      <!-- 0.06 -->
      <g transform="translate(22.893835 95.041281) scale(0.09 -0.09)">
       <use xlink:href="#DejaVuSans-30"/>
       <use xlink:href="#DejaVuSans-2e" transform="translate(63.623047 0)"/>
       <use xlink:href="#DejaVuSans-30" transform="translate(95.410156 0)"/>
       <use xlink:href="#DejaVuSans-36" transform="translate(159.033203 0)"/>
      </g>
     </g>
    </g>
    <g id="ytick_5">
     <g id="line2d_19">
      <path d="M 49.932898 66.041073 
L 829.660831 66.041073 
" clip-path="url(#p5517ae9932)" style="fill: none; stroke-dasharray: 2.96,1.28; stroke-dashoffset: 0; stroke: #b0b0b0; stroke-opacity: 0.3; stroke-width: 0.8"/>
     </g>
     <g id="line2d_20">
      <g>
       <use xlink:href="#m0e5f1c3dc9" x="49.932898" y="66.041073" style="stroke: #000000; stroke-width: 0.8"/>
      </g>
     </g>
     <g id="text_16">
      <!-- 0.08 -->
      <g transform="translate(22.893835 69.46037) scale(0.09 -0.09)">
       <defs>
        <path id="DejaVuSans-38" d="M 2034 2216 
Q 1584 2216 1326 1975 
Q 1069 1734 1069 1313 
Q 1069 891 1326 650 
Q 1584 409 2034 409 
Q 2484 409 2743 651 
Q 3003 894 3003 1313 
Q 3003 1734 2745 1975 
Q 2488 2216 2034 2216 
z
M 1403 2484 
Q 997 2584 770 2862 
Q 544 3141 544 3541 
Q 544 4100 942 4425 
Q 1341 4750 2034 4750 
Q 2731 4750 3128 4425 
Q 3525 4100 3525 3541 
Q 3525 3141 3298 2862 
Q 3072 2584 2669 2484 
Q 3125 2378 3379 2068 
Q 3634 1759 3634 1313 
Q 3634 634 3220 271 
Q 2806 -91 2034 -91 
Q 1263 -91 848 271 
Q 434 634 434 1313 
Q 434 1759 690 2068 
Q 947 2378 1403 2484 
z
M 1172 3481 
Q 1172 3119 1398 2916 
Q 1625 2713 2034 2713 
Q 2441 2713 2670 2916 
Q 2900 3119 2900 3481 
Q 2900 3844 2670 4047 
Q 2441 4250 2034 4250 
Q 1625 4250 1398 4047 
Q 1172 3844 1172 3481 
z
" transform="scale(0.015625)"/>
       </defs>
       <use xlink:href="#DejaVuSans-30"/>
       <use xlink:href="#DejaVuSans-2e" transform="translate(63.623047 0)"/>
       <use xlink:href="#DejaVuSans-30" transform="translate(95.410156 0)"/>
       <use xlink:href="#DejaVuSans-38" transform="translate(159.033203 0)"/>
      </g>
     </g>
    </g>
    <g id="ytick_6">
     <g id="line2d_21">
      <path d="M 49.932898 40.460163 
L 829.660831 40.460163 
" clip-path="url(#p5517ae9932)" style="fill: none; stroke-dasharray: 2.96,1.28; stroke-dashoffset: 0; stroke: #b0b0b0; stroke-opacity: 0.3; stroke-width: 0.8"/>
     </g>
     <g id="line2d_22">
      <g>
       <use xlink:href="#m0e5f1c3dc9" x="49.932898" y="40.460163" style="stroke: #000000; stroke-width: 0.8"/>
      </g>
     </g>
     <g id="text_17">
      <!-- 0.10 -->
      <g transform="translate(22.893835 43.879459) scale(0.09 -0.09)">
       <use xlink:href="#DejaVuSans-30"/>
       <use xlink:href="#DejaVuSans-2e" transform="translate(63.623047 0)"/>
       <use xlink:href="#DejaVuSans-31" transform="translate(95.410156 0)"/>
       <use xlink:href="#DejaVuSans-30" transform="translate(159.033203 0)"/>
      </g>
     </g>
    </g>
    <g id="text_18">
     <!-- Normalized Importance -->
     <g transform="translate(16.814148 160.939077) rotate(-90) scale(0.1 -0.1)">
      <defs>
       <path id="DejaVuSans-4e" d="M 628 4666 
L 1478 4666 
L 3547 763 
L 3547 4666 
L 4159 4666 
L 4159 0 
L 3309 0 
L 1241 3903 
L 1241 0 
L 628 0 
L 628 4666 
z
" transform="scale(0.015625)"/>
       <path id="DejaVuSans-7a" d="M 353 3500 
L 3084 3500 
L 3084 2975 
L 922 459 
L 3084 459 
L 3084 0 
L 275 0 
L 275 525 
L 2438 3041 
L 353 3041 
L 353 3500 
z
" transform="scale(0.015625)"/>
       <path id="DejaVuSans-49" d="M 628 4666 
L 1259 4666 
L 1259 0 
L 628 0 
L 628 4666 
z
" transform="scale(0.015625)"/>
      </defs>
      <use xlink:href="#DejaVuSans-4e"/>
      <use xlink:href="#DejaVuSans-6f" transform="translate(74.804688 0)"/>
      <use xlink:href="#DejaVuSans-72" transform="translate(135.986328 0)"/>
      <use xlink:href="#DejaVuSans-6d" transform="translate(175.349609 0)"/>
      <use xlink:href="#DejaVuSans-61" transform="translate(272.761719 0)"/>
      <use xlink:href="#DejaVuSans-6c" transform="translate(334.041016 0)"/>
      <use xlink:href="#DejaVuSans-69" transform="translate(361.824219 0)"/>
      <use xlink:href="#DejaVuSans-7a" transform="translate(389.607422 0)"/>
      <use xlink:href="#DejaVuSans-65" transform="translate(442.097656 0)"/>
      <use xlink:href="#DejaVuSans-64" transform="translate(503.621094 0)"/>
      <use xlink:href="#DejaVuSans-20" transform="translate(567.097656 0)"/>
      <use xlink:href="#DejaVuSans-49" transform="translate(598.884766 0)"/>
      <use xlink:href="#DejaVuSans-6d" transform="translate(628.376953 0)"/>
      <use xlink:href="#DejaVuSans-70" transform="translate(725.789062 0)"/>
      <use xlink:href="#DejaVuSans-6f" transform="translate(789.265625 0)"/>
      <use xlink:href="#DejaVuSans-72" transform="translate(850.447266 0)"/>
      <use xlink:href="#DejaVuSans-74" transform="translate(891.560547 0)"/>
      <use xlink:href="#DejaVuSans-61" transform="translate(930.769531 0)"/>
      <use xlink:href="#DejaVuSans-6e" transform="translate(992.048828 0)"/>
      <use xlink:href="#DejaVuSans-63" transform="translate(1055.427734 0)"/>
      <use xlink:href="#DejaVuSans-65" transform="translate(1110.408203 0)"/>
     </g>
    </g>
   </g>
   <g id="LineCollection_1">
    <path d="M 94.462815 64.43562 
L 94.462815 42.606058 
" clip-path="url(#p5517ae9932)" style="fill: none; stroke: #000000; stroke-opacity: 0.5"/>
    <path d="M 167.16472 111.344208 
L 167.16472 71.616671 
" clip-path="url(#p5517ae9932)" style="fill: none; stroke: #000000; stroke-opacity: 0.5"/>
    <path d="M 239.866625 123.219683 
L 239.866625 90.623583 
" clip-path="url(#p5517ae9932)" style="fill: none; stroke: #000000; stroke-opacity: 0.5"/>
    <path d="M 312.56853 150.116979 
L 312.56853 138.358724 
" clip-path="url(#p5517ae9932)" style="fill: none; stroke: #000000; stroke-opacity: 0.5"/>
    <path d="M 385.270435 116.981887 
L 385.270435 73.056206 
" clip-path="url(#p5517ae9932)" style="fill: none; stroke: #000000; stroke-opacity: 0.5"/>
    <path d="M 457.972341 166.112875 
L 457.972341 148.09815 
" clip-path="url(#p5517ae9932)" style="fill: none; stroke: #000000; stroke-opacity: 0.5"/>
    <path d="M 530.674246 155.482749 
L 530.674246 132.349571 
" clip-path="url(#p5517ae9932)" style="fill: none; stroke: #000000; stroke-opacity: 0.5"/>
    <path d="M 603.376151 152.133883 
L 603.376151 131.194754 
" clip-path="url(#p5517ae9932)" style="fill: none; stroke: #000000; stroke-opacity: 0.5"/>
    <path d="M 676.078056 150.686298 
L 676.078056 115.270997 
" clip-path="url(#p5517ae9932)" style="fill: none; stroke: #000000; stroke-opacity: 0.5"/>
    <path d="M 748.779961 153.056794 
L 748.779961 134.132143 
" clip-path="url(#p5517ae9932)" style="fill: none; stroke: #000000; stroke-opacity: 0.5"/>
   </g>
   <g id="line2d_23">
    <defs>
     <path id="me976c83978" d="M 3 0 
L -3 -0 
" style="stroke: #000000; stroke-opacity: 0.5"/>
    </defs>
    <g clip-path="url(#p5517ae9932)">
     <use xlink:href="#me976c83978" x="94.462815" y="64.43562" style="fill-opacity: 0.5; stroke: #000000; stroke-opacity: 0.5"/>
     <use xlink:href="#me976c83978" x="167.16472" y="111.344208" style="fill-opacity: 0.5; stroke: #000000; stroke-opacity: 0.5"/>
     <use xlink:href="#me976c83978" x="239.866625" y="123.219683" style="fill-opacity: 0.5; stroke: #000000; stroke-opacity: 0.5"/>
     <use xlink:href="#me976c83978" x="312.56853" y="150.116979" style="fill-opacity: 0.5; stroke: #000000; stroke-opacity: 0.5"/>
     <use xlink:href="#me976c83978" x="385.270435" y="116.981887" style="fill-opacity: 0.5; stroke: #000000; stroke-opacity: 0.5"/>
     <use xlink:href="#me976c83978" x="457.972341" y="166.112875" style="fill-opacity: 0.5; stroke: #000000; stroke-opacity: 0.5"/>
     <use xlink:href="#me976c83978" x="530.674246" y="155.482749" style="fill-opacity: 0.5; stroke: #000000; stroke-opacity: 0.5"/>
     <use xlink:href="#me976c83978" x="603.376151" y="152.133883" style="fill-opacity: 0.5; stroke: #000000; stroke-opacity: 0.5"/>
     <use xlink:href="#me976c83978" x="676.078056" y="150.686298" style="fill-opacity: 0.5; stroke: #000000; stroke-opacity: 0.5"/>
     <use xlink:href="#me976c83978" x="748.779961" y="153.056794" style="fill-opacity: 0.5; stroke: #000000; stroke-opacity: 0.5"/>
    </g>
   </g>
   <g id="line2d_24">
    <g clip-path="url(#p5517ae9932)">
     <use xlink:href="#me976c83978" x="94.462815" y="42.606058" style="fill-opacity: 0.5; stroke: #000000; stroke-opacity: 0.5"/>
     <use xlink:href="#me976c83978" x="167.16472" y="71.616671" style="fill-opacity: 0.5; stroke: #000000; stroke-opacity: 0.5"/>
     <use xlink:href="#me976c83978" x="239.866625" y="90.623583" style="fill-opacity: 0.5; stroke: #000000; stroke-opacity: 0.5"/>
     <use xlink:href="#me976c83978" x="312.56853" y="138.358724" style="fill-opacity: 0.5; stroke: #000000; stroke-opacity: 0.5"/>
     <use xlink:href="#me976c83978" x="385.270435" y="73.056206" style="fill-opacity: 0.5; stroke: #000000; stroke-opacity: 0.5"/>
     <use xlink:href="#me976c83978" x="457.972341" y="148.09815" style="fill-opacity: 0.5; stroke: #000000; stroke-opacity: 0.5"/>
     <use xlink:href="#me976c83978" x="530.674246" y="132.349571" style="fill-opacity: 0.5; stroke: #000000; stroke-opacity: 0.5"/>
     <use xlink:href="#me976c83978" x="603.376151" y="131.194754" style="fill-opacity: 0.5; stroke: #000000; stroke-opacity: 0.5"/>
     <use xlink:href="#me976c83978" x="676.078056" y="115.270997" style="fill-opacity: 0.5; stroke: #000000; stroke-opacity: 0.5"/>
     <use xlink:href="#me976c83978" x="748.779961" y="134.132143" style="fill-opacity: 0.5; stroke: #000000; stroke-opacity: 0.5"/>
    </g>
   </g>
   <g id="LineCollection_2">
    <path d="M 112.638291 158.492958 
L 112.638291 151.161975 
" clip-path="url(#p5517ae9932)" style="fill: none; stroke: #000000; stroke-opacity: 0.5"/>
    <path d="M 185.340196 146.338378 
L 185.340196 127.049176 
" clip-path="url(#p5517ae9932)" style="fill: none; stroke: #000000; stroke-opacity: 0.5"/>
    <path d="M 258.042101 132.479805 
L 258.042101 118.383048 
" clip-path="url(#p5517ae9932)" style="fill: none; stroke: #000000; stroke-opacity: 0.5"/>
    <path d="M 330.744006 164.546188 
L 330.744006 159.450344 
" clip-path="url(#p5517ae9932)" style="fill: none; stroke: #000000; stroke-opacity: 0.5"/>
    <path d="M 403.445912 152.962165 
L 403.445912 142.451085 
" clip-path="url(#p5517ae9932)" style="fill: none; stroke: #000000; stroke-opacity: 0.5"/>
    <path d="M 476.147817 158.449732 
L 476.147817 131.742228 
" clip-path="url(#p5517ae9932)" style="fill: none; stroke: #000000; stroke-opacity: 0.5"/>
    <path d="M 548.849722 156.629677 
L 548.849722 140.731849 
" clip-path="url(#p5517ae9932)" style="fill: none; stroke: #000000; stroke-opacity: 0.5"/>
    <path d="M 621.551627 157.534476 
L 621.551627 149.113715 
" clip-path="url(#p5517ae9932)" style="fill: none; stroke: #000000; stroke-opacity: 0.5"/>
    <path d="M 694.253532 165.146595 
L 694.253532 163.531848 
" clip-path="url(#p5517ae9932)" style="fill: none; stroke: #000000; stroke-opacity: 0.5"/>
    <path d="M 766.955438 162.723882 
L 766.955438 155.760971 
" clip-path="url(#p5517ae9932)" style="fill: none; stroke: #000000; stroke-opacity: 0.5"/>
   </g>
   <g id="line2d_25">
    <g clip-path="url(#p5517ae9932)">
     <use xlink:href="#me976c83978" x="112.638291" y="158.492958" style="fill-opacity: 0.5; stroke: #000000; stroke-opacity: 0.5"/>
     <use xlink:href="#me976c83978" x="185.340196" y="146.338378" style="fill-opacity: 0.5; stroke: #000000; stroke-opacity: 0.5"/>
     <use xlink:href="#me976c83978" x="258.042101" y="132.479805" style="fill-opacity: 0.5; stroke: #000000; stroke-opacity: 0.5"/>
     <use xlink:href="#me976c83978" x="330.744006" y="164.546188" style="fill-opacity: 0.5; stroke: #000000; stroke-opacity: 0.5"/>
     <use xlink:href="#me976c83978" x="403.445912" y="152.962165" style="fill-opacity: 0.5; stroke: #000000; stroke-opacity: 0.5"/>
     <use xlink:href="#me976c83978" x="476.147817" y="158.449732" style="fill-opacity: 0.5; stroke: #000000; stroke-opacity: 0.5"/>
     <use xlink:href="#me976c83978" x="548.849722" y="156.629677" style="fill-opacity: 0.5; stroke: #000000; stroke-opacity: 0.5"/>
     <use xlink:href="#me976c83978" x="621.551627" y="157.534476" style="fill-opacity: 0.5; stroke: #000000; stroke-opacity: 0.5"/>
     <use xlink:href="#me976c83978" x="694.253532" y="165.146595" style="fill-opacity: 0.5; stroke: #000000; stroke-opacity: 0.5"/>
     <use xlink:href="#me976c83978" x="766.955438" y="162.723882" style="fill-opacity: 0.5; stroke: #000000; stroke-opacity: 0.5"/>
    </g>
   </g>
   <g id="line2d_26">
    <g clip-path="url(#p5517ae9932)">
     <use xlink:href="#me976c83978" x="112.638291" y="151.161975" style="fill-opacity: 0.5; stroke: #000000; stroke-opacity: 0.5"/>
     <use xlink:href="#me976c83978" x="185.340196" y="127.049176" style="fill-opacity: 0.5; stroke: #000000; stroke-opacity: 0.5"/>
     <use xlink:href="#me976c83978" x="258.042101" y="118.383048" style="fill-opacity: 0.5; stroke: #000000; stroke-opacity: 0.5"/>
     <use xlink:href="#me976c83978" x="330.744006" y="159.450344" style="fill-opacity: 0.5; stroke: #000000; stroke-opacity: 0.5"/>
     <use xlink:href="#me976c83978" x="403.445912" y="142.451085" style="fill-opacity: 0.5; stroke: #000000; stroke-opacity: 0.5"/>
     <use xlink:href="#me976c83978" x="476.147817" y="131.742228" style="fill-opacity: 0.5; stroke: #000000; stroke-opacity: 0.5"/>
     <use xlink:href="#me976c83978" x="548.849722" y="140.731849" style="fill-opacity: 0.5; stroke: #000000; stroke-opacity: 0.5"/>
     <use xlink:href="#me976c83978" x="621.551627" y="149.113715" style="fill-opacity: 0.5; stroke: #000000; stroke-opacity: 0.5"/>
     <use xlink:href="#me976c83978" x="694.253532" y="163.531848" style="fill-opacity: 0.5; stroke: #000000; stroke-opacity: 0.5"/>
     <use xlink:href="#me976c83978" x="766.955438" y="155.760971" style="fill-opacity: 0.5; stroke: #000000; stroke-opacity: 0.5"/>
    </g>
   </g>
   <g id="LineCollection_3">
    <path d="M 130.813767 124.833413 
L 130.813767 116.211816 
" clip-path="url(#p5517ae9932)" style="fill: none; stroke: #000000; stroke-opacity: 0.5"/>
    <path d="M 203.515672 134.962718 
L 203.515672 67.487621 
" clip-path="url(#p5517ae9932)" style="fill: none; stroke: #000000; stroke-opacity: 0.5"/>
    <path d="M 276.217578 143.56107 
L 276.217578 92.536243 
" clip-path="url(#p5517ae9932)" style="fill: none; stroke: #000000; stroke-opacity: 0.5"/>
    <path d="M 348.919483 121.921598 
L 348.919483 79.3656 
" clip-path="url(#p5517ae9932)" style="fill: none; stroke: #000000; stroke-opacity: 0.5"/>
    <path d="M 421.621388 167.462361 
L 421.621388 166.608071 
" clip-path="url(#p5517ae9932)" style="fill: none; stroke: #000000; stroke-opacity: 0.5"/>
    <path d="M 494.323293 144.758728 
L 494.323293 133.52069 
" clip-path="url(#p5517ae9932)" style="fill: none; stroke: #000000; stroke-opacity: 0.5"/>
    <path d="M 567.025198 162.099604 
L 567.025198 143.827791 
" clip-path="url(#p5517ae9932)" style="fill: none; stroke: #000000; stroke-opacity: 0.5"/>
    <path d="M 639.727104 156.370183 
L 639.727104 148.61776 
" clip-path="url(#p5517ae9932)" style="fill: none; stroke: #000000; stroke-opacity: 0.5"/>
    <path d="M 712.429009 163.076189 
L 712.429009 142.447456 
" clip-path="url(#p5517ae9932)" style="fill: none; stroke: #000000; stroke-opacity: 0.5"/>
    <path d="M 785.130914 162.409331 
L 785.130914 133.696927 
" clip-path="url(#p5517ae9932)" style="fill: none; stroke: #000000; stroke-opacity: 0.5"/>
   </g>
   <g id="line2d_27">
    <g clip-path="url(#p5517ae9932)">
     <use xlink:href="#me976c83978" x="130.813767" y="124.833413" style="fill-opacity: 0.5; stroke: #000000; stroke-opacity: 0.5"/>
     <use xlink:href="#me976c83978" x="203.515672" y="134.962718" style="fill-opacity: 0.5; stroke: #000000; stroke-opacity: 0.5"/>
     <use xlink:href="#me976c83978" x="276.217578" y="143.56107" style="fill-opacity: 0.5; stroke: #000000; stroke-opacity: 0.5"/>
     <use xlink:href="#me976c83978" x="348.919483" y="121.921598" style="fill-opacity: 0.5; stroke: #000000; stroke-opacity: 0.5"/>
     <use xlink:href="#me976c83978" x="421.621388" y="167.462361" style="fill-opacity: 0.5; stroke: #000000; stroke-opacity: 0.5"/>
     <use xlink:href="#me976c83978" x="494.323293" y="144.758728" style="fill-opacity: 0.5; stroke: #000000; stroke-opacity: 0.5"/>
     <use xlink:href="#me976c83978" x="567.025198" y="162.099604" style="fill-opacity: 0.5; stroke: #000000; stroke-opacity: 0.5"/>
     <use xlink:href="#me976c83978" x="639.727104" y="156.370183" style="fill-opacity: 0.5; stroke: #000000; stroke-opacity: 0.5"/>
     <use xlink:href="#me976c83978" x="712.429009" y="163.076189" style="fill-opacity: 0.5; stroke: #000000; stroke-opacity: 0.5"/>
     <use xlink:href="#me976c83978" x="785.130914" y="162.409331" style="fill-opacity: 0.5; stroke: #000000; stroke-opacity: 0.5"/>
    </g>
   </g>
   <g id="line2d_28">
    <g clip-path="url(#p5517ae9932)">
     <use xlink:href="#me976c83978" x="130.813767" y="116.211816" style="fill-opacity: 0.5; stroke: #000000; stroke-opacity: 0.5"/>
     <use xlink:href="#me976c83978" x="203.515672" y="67.487621" style="fill-opacity: 0.5; stroke: #000000; stroke-opacity: 0.5"/>
     <use xlink:href="#me976c83978" x="276.217578" y="92.536243" style="fill-opacity: 0.5; stroke: #000000; stroke-opacity: 0.5"/>
     <use xlink:href="#me976c83978" x="348.919483" y="79.3656" style="fill-opacity: 0.5; stroke: #000000; stroke-opacity: 0.5"/>
     <use xlink:href="#me976c83978" x="421.621388" y="166.608071" style="fill-opacity: 0.5; stroke: #000000; stroke-opacity: 0.5"/>
     <use xlink:href="#me976c83978" x="494.323293" y="133.52069" style="fill-opacity: 0.5; stroke: #000000; stroke-opacity: 0.5"/>
     <use xlink:href="#me976c83978" x="567.025198" y="143.827791" style="fill-opacity: 0.5; stroke: #000000; stroke-opacity: 0.5"/>
     <use xlink:href="#me976c83978" x="639.727104" y="148.61776" style="fill-opacity: 0.5; stroke: #000000; stroke-opacity: 0.5"/>
     <use xlink:href="#me976c83978" x="712.429009" y="142.447456" style="fill-opacity: 0.5; stroke: #000000; stroke-opacity: 0.5"/>
     <use xlink:href="#me976c83978" x="785.130914" y="133.696927" style="fill-opacity: 0.5; stroke: #000000; stroke-opacity: 0.5"/>
    </g>
   </g>
   <g id="patch_33">
    <path d="M 49.932898 168.364716 
L 49.932898 36.318125 
" style="fill: none; stroke: #000000; stroke-width: 0.8; stroke-linejoin: miter; stroke-linecap: square"/>
   </g>
   <g id="patch_34">
    <path d="M 829.660831 168.364716 
L 829.660831 36.318125 
" style="fill: none; stroke: #000000; stroke-width: 0.8; stroke-linejoin: miter; stroke-linecap: square"/>
   </g>
   <g id="patch_35">
    <path d="M 49.932898 168.364716 
L 829.660831 168.364716 
" style="fill: none; stroke: #000000; stroke-width: 0.8; stroke-linejoin: miter; stroke-linecap: square"/>
   </g>
   <g id="patch_36">
    <path d="M 49.932898 36.318125 
L 829.660831 36.318125 
" style="fill: none; stroke: #000000; stroke-width: 0.8; stroke-linejoin: miter; stroke-linecap: square"/>
   </g>
   <g id="text_19">
    <!-- Feature Importance - FRAGIRE18 -->
    <g transform="translate(341.466239 16.318125) scale(0.12 -0.12)">
     <defs>
      <path id="DejaVuSans-2d" d="M 313 2009 
L 1997 2009 
L 1997 1497 
L 313 1497 
L 313 2009 
z
" transform="scale(0.015625)"/>
      <path id="DejaVuSans-47" d="M 3809 666 
L 3809 1919 
L 2778 1919 
L 2778 2438 
L 4434 2438 
L 4434 434 
Q 4069 175 3628 42 
Q 3188 -91 2688 -91 
Q 1594 -91 976 548 
Q 359 1188 359 2328 
Q 359 3472 976 4111 
Q 1594 4750 2688 4750 
Q 3144 4750 3555 4637 
Q 3966 4525 4313 4306 
L 4313 3634 
Q 3963 3931 3569 4081 
Q 3175 4231 2741 4231 
Q 1884 4231 1454 3753 
Q 1025 3275 1025 2328 
Q 1025 1384 1454 906 
Q 1884 428 2741 428 
Q 3075 428 3337 486 
Q 3600 544 3809 666 
z
" transform="scale(0.015625)"/>
     </defs>
     <use xlink:href="#DejaVuSans-46"/>
     <use xlink:href="#DejaVuSans-65" transform="translate(52.019531 0)"/>
     <use xlink:href="#DejaVuSans-61" transform="translate(113.542969 0)"/>
     <use xlink:href="#DejaVuSans-74" transform="translate(174.822266 0)"/>
     <use xlink:href="#DejaVuSans-75" transform="translate(214.03125 0)"/>
     <use xlink:href="#DejaVuSans-72" transform="translate(277.410156 0)"/>
     <use xlink:href="#DejaVuSans-65" transform="translate(316.273438 0)"/>
     <use xlink:href="#DejaVuSans-20" transform="translate(377.796875 0)"/>
     <use xlink:href="#DejaVuSans-49" transform="translate(409.583984 0)"/>
     <use xlink:href="#DejaVuSans-6d" transform="translate(439.076172 0)"/>
     <use xlink:href="#DejaVuSans-70" transform="translate(536.488281 0)"/>
     <use xlink:href="#DejaVuSans-6f" transform="translate(599.964844 0)"/>
     <use xlink:href="#DejaVuSans-72" transform="translate(661.146484 0)"/>
     <use xlink:href="#DejaVuSans-74" transform="translate(702.259766 0)"/>
     <use xlink:href="#DejaVuSans-61" transform="translate(741.46875 0)"/>
     <use xlink:href="#DejaVuSans-6e" transform="translate(802.748047 0)"/>
     <use xlink:href="#DejaVuSans-63" transform="translate(866.126953 0)"/>
     <use xlink:href="#DejaVuSans-65" transform="translate(921.107422 0)"/>
     <use xlink:href="#DejaVuSans-20" transform="translate(982.630859 0)"/>
     <use xlink:href="#DejaVuSans-2d" transform="translate(1014.417969 0)"/>
     <use xlink:href="#DejaVuSans-20" transform="translate(1050.501953 0)"/>
     <use xlink:href="#DejaVuSans-46" transform="translate(1082.289062 0)"/>
     <use xlink:href="#DejaVuSans-52" transform="translate(1139.808594 0)"/>
     <use xlink:href="#DejaVuSans-41" transform="translate(1205.291016 0)"/>
     <use xlink:href="#DejaVuSans-47" transform="translate(1271.949219 0)"/>
     <use xlink:href="#DejaVuSans-49" transform="translate(1349.439453 0)"/>
     <use xlink:href="#DejaVuSans-52" transform="translate(1378.931641 0)"/>
     <use xlink:href="#DejaVuSans-45" transform="translate(1448.414062 0)"/>
     <use xlink:href="#DejaVuSans-31" transform="translate(1511.597656 0)"/>
     <use xlink:href="#DejaVuSans-38" transform="translate(1575.220703 0)"/>
    </g>
   </g>
   <g id="legend_1">
    <g id="patch_37">
     <path d="M 745.922862 83.149063 
L 823.360831 83.149063 
Q 825.160831 83.149063 825.160831 81.349063 
L 825.160831 42.618125 
Q 825.160831 40.818125 823.360831 40.818125 
L 745.922862 40.818125 
Q 744.122862 40.818125 744.122862 42.618125 
L 744.122862 81.349063 
Q 744.122862 83.149063 745.922862 83.149063 
z
" style="fill: #ffffff; opacity: 0.8; stroke: #cccccc; stroke-linejoin: miter"/>
    </g>
    <g id="patch_38">
     <path d="M 747.722862 51.256719 
L 765.722862 51.256719 
L 765.722862 44.956719 
L 747.722862 44.956719 
z
" style="fill: #2196f3; opacity: 0.8"/>
    </g>
    <g id="text_20">
     <!-- LIGHTGBM -->
     <g transform="translate(772.922862 51.256719) scale(0.09 -0.09)">
      <use xlink:href="#DejaVuSans-4c"/>
      <use xlink:href="#DejaVuSans-49" transform="translate(55.712891 0)"/>
      <use xlink:href="#DejaVuSans-47" transform="translate(85.205078 0)"/>
      <use xlink:href="#DejaVuSans-48" transform="translate(162.695312 0)"/>
      <use xlink:href="#DejaVuSans-54" transform="translate(237.890625 0)"/>
      <use xlink:href="#DejaVuSans-47" transform="translate(298.974609 0)"/>
      <use xlink:href="#DejaVuSans-42" transform="translate(376.464844 0)"/>
      <use xlink:href="#DejaVuSans-4d" transform="translate(445.068359 0)"/>
     </g>
    </g>
    <g id="patch_39">
     <path d="M 747.722862 64.467031 
L 765.722862 64.467031 
L 765.722862 58.167031 
L 747.722862 58.167031 
z
" style="fill: #ffa726; opacity: 0.8"/>
    </g>
    <g id="text_21">
     <!-- XGBOOST -->
     <g transform="translate(772.922862 64.467031) scale(0.09 -0.09)">
      <defs>
       <path id="DejaVuSans-58" d="M 403 4666 
L 1081 4666 
L 2241 2931 
L 3406 4666 
L 4084 4666 
L 2584 2425 
L 4184 0 
L 3506 0 
L 2194 1984 
L 872 0 
L 191 0 
L 1856 2491 
L 403 4666 
z
" transform="scale(0.015625)"/>
      </defs>
      <use xlink:href="#DejaVuSans-58"/>
      <use xlink:href="#DejaVuSans-47" transform="translate(68.505859 0)"/>
      <use xlink:href="#DejaVuSans-42" transform="translate(145.996094 0)"/>
      <use xlink:href="#DejaVuSans-4f" transform="translate(212.849609 0)"/>
      <use xlink:href="#DejaVuSans-4f" transform="translate(291.560547 0)"/>
      <use xlink:href="#DejaVuSans-53" transform="translate(370.271484 0)"/>
      <use xlink:href="#DejaVuSans-54" transform="translate(433.748047 0)"/>
     </g>
    </g>
    <g id="patch_40">
     <path d="M 747.722862 77.677344 
L 765.722862 77.677344 
L 765.722862 71.377344 
L 747.722862 71.377344 
z
" style="fill: #66bb6a; opacity: 0.8"/>
    </g>
    <g id="text_22">
     <!-- CATBOOST -->
     <g transform="translate(772.922862 77.677344) scale(0.09 -0.09)">
      <use xlink:href="#DejaVuSans-43"/>
      <use xlink:href="#DejaVuSans-41" transform="translate(69.824219 0)"/>
      <use xlink:href="#DejaVuSans-54" transform="translate(130.482422 0)"/>
      <use xlink:href="#DejaVuSans-42" transform="translate(191.566406 0)"/>
      <use xlink:href="#DejaVuSans-4f" transform="translate(258.419922 0)"/>
      <use xlink:href="#DejaVuSans-4f" transform="translate(337.130859 0)"/>
      <use xlink:href="#DejaVuSans-53" transform="translate(415.841797 0)"/>
      <use xlink:href="#DejaVuSans-54" transform="translate(479.318359 0)"/>
     </g>
    </g>
   </g>
  </g>
 </g>
 <defs>
  <clipPath id="p5517ae9932">
   <rect x="49.932898" y="36.318125" width="779.727933" height="132.046591"/>
  </clipPath>
 </defs>
</svg>
